<?xml version="1.0" encoding="UTF-8"?>
<svg id="FONDO" xmlns="http://www.w3.org/2000/svg" viewBox="0 0 4376 274.92">
  <defs>
    <style>
      .cls-1 {
        fill: #f19104;
      }

      .cls-2 {
        fill: #fcfcf8;
      }
    </style>
  </defs>
  <path class="cls-2" d="M17.61,67.23C4.5,89.93,0,114.39,0,138.07s4.5,48.14,17.61,70.64c22.89,39.53,66.14,66.14,127.98,66.14h214.66v-57.53H145.59c-15.07,0-28.77-2.74-40.51-9-27.98-14.48-38.35-42.46-38.35-70.45,0-15.26,2.94-30.13,10.57-43.44,13.31-23.09,36.2-36.79,68.29-36.79h214.66V.11H145.59C83.36,.11,40.11,27.9,17.61,67.23Z"/>
  <path class="cls-2" d="M782.04,66.93C759.19,27.65,715.91,0,653.8,0h-106.6c-61.72,0-105,27.25-127.44,66.52-13.23,22.04-17.63,46.49-17.63,69.73s4.01,48.89,17.63,72.14c22.44,38.87,66.12,66.53,127.44,66.53h106.6c61.72,0,105.4-27.25,127.84-66.53,13.23-22.04,17.63-46.89,17.63-70.13s-4.41-48.49-17.23-71.33Zm-72.14,129.84c-14.83,14.03-32.86,20.44-56.51,20.44h-105.8c-23.64,0-41.28-6.41-56.1-20.44-16.43-15.63-22.84-36.87-22.84-58.11v-2c0-21.64,6.41-42.88,22.84-58.51,14.83-14.03,32.46-20.44,56.1-20.44h105.8c23.65,0,41.68,6.41,56.11,20.44,16.83,16.03,23.24,37.27,23.24,58.91s-6.41,43.28-22.84,59.71Z"/>
  <polygon class="cls-2" points="1134.22 190.9 899.21 .11 840.9 .11 840.9 274.85 907.63 274.85 907.63 86.6 1142.83 274.85 1200.95 274.85 1200.95 57.64 1134.22 .11 1134.22 190.9"/>
  <path class="cls-2" d="M1513.96,108.72h-181.59c-13.7,0-22.89-9.39-22.89-25.83s9.39-25.24,22.89-25.24h259.67V.11h-260.26c-27,0-48.92,8.41-65.36,24.26-18.39,17.42-23.68,39.72-23.68,59.29s5.28,41.29,23.68,58.7c16.44,15.46,38.35,23.87,65.36,23.87h181.59c13.89,0,22.89,9.39,22.89,25.63s-9.2,25.44-22.89,25.44h-259.47v57.53h260.06c27,0,49.51-8.41,65.75-24.26,18-17.61,23.29-39.92,23.29-59.29s-5.09-41.29-23.48-58.7c-16.24-15.65-38.74-23.87-65.55-23.87Z"/>
  <polygon class="cls-2" points="1644.81 57.64 1780.62 57.64 1780.62 274.85 1850.28 274.85 1850.28 57.64 1986.86 57.64 1986.86 .11 1644.81 .11 1644.81 57.64"/>
  <path class="cls-2" d="M2359.17,179.55c22.89-21.92,29.55-49.31,29.55-74.16,0-17.61-3.33-36.79-13.11-54.01C2358.38,21.25,2325.31,.11,2277.37,.11h-201.18l-47.53,57.53h248.32c13.5,0,23.48,3.72,31.7,11.55,9.59,9.2,13.31,21.92,13.31,35.42s-3.72,26.22-13.31,35.42c-8.41,8.22-18.2,11.74-31.7,11.74h-248.32v123.08h66.73v-65.55h156.54l63.4,65.55h87.47l-73.38-75.53c11.74-5.09,21.52-11.94,29.74-19.76Z"/>
  <path class="cls-2" d="M2738.14,106.56c0,38.16-14.68,76.71-54.59,97.64-17.81,9.2-37.18,13.11-59.68,13.11s-40.9-3.91-58.31-13.11c-39.53-20.94-54.2-59.88-54.2-97.64V.11h-66.73V107.54c0,28.96,5.67,58.9,21.92,86.49,28.77,48.72,83.95,80.82,159.48,80.82s128.95-32.48,157.33-81.01c15.85-27.4,21.52-57.53,21.52-86.3V.11h-66.73V106.56Z"/>
  <path class="cls-2" d="M2864.28,67.23c-13.11,22.7-17.61,47.16-17.61,70.84s4.5,48.14,17.61,70.64c22.89,39.53,66.14,66.14,127.98,66.14h214.66v-57.53h-214.66c-15.07,0-28.77-2.74-40.51-9-27.98-14.48-38.35-42.46-38.35-70.45,0-15.26,2.94-30.13,10.57-43.44,13.31-23.09,36.2-36.79,68.29-36.79h214.66V.11h-214.66c-62.23,0-105.47,27.79-127.98,67.12Z"/>
  <polygon class="cls-2" points="3248.71 57.64 3384.51 57.64 3384.51 274.85 3454.18 274.85 3454.18 57.64 3590.76 57.64 3590.76 .11 3248.71 .11 3248.71 57.64"/>
  <polygon class="cls-2" points="3632.6 274.85 3921.85 274.85 3974.65 217.32 3699.32 217.32 3699.32 166.25 3856.49 166.25 3909.29 108.72 3699.32 108.72 3699.32 57.64 3921.85 57.64 3974.65 .11 3632.6 .11 3632.6 274.85"/>
  <polygon class="cls-1" points="4191.96 150.94 4376 274.92 4282.22 274.92 4138.66 184.2 4191.96 150.94"/>
  <polygon class="cls-1" points="4083.05 101.3 4016.52 142.58 4016.52 53.79 4083.05 0 4083.05 101.3"/>
  <polygon class="cls-1" points="4282.22 0 4110.7 108.6 4103.49 113.41 4083.05 126.24 4016.52 167.51 4016.52 274.92 4083.05 274.92 4083.05 201.18 4083.05 192.76 4118.32 171.12 4172.42 137.46 4177.63 133.85 4376 0 4282.22 0"/>
</svg>