<?xml version="1.0" encoding="UTF-8"?>
<svg id="FONDO" xmlns="http://www.w3.org/2000/svg" viewBox="0 0 123.19 211.76">
  <defs>
    <style>
      .cls-1 {
        font-family: CenturyGothic, 'Century Gothic';
        font-size: 16.38px;
      }

      .cls-1, .cls-2 {
        fill: #020202;
      }

      .cls-3 {
        fill: #f19104;
      }
    </style>
  </defs>
  <path class="cls-2" d="M30.31,197.92c.84-1.31,1.16-2.73,1.16-4.15,0-1.8-.54-3.7-2.14-5.27-1.55-1.49-3.6-2.27-6.15-2.27H10.18c-2.52,0-4.6,.78-6.12,2.27-1.62,1.57-2.15,3.47-2.15,5.27,0,1.4,.33,2.84,1.16,4.15-2.38,1.67-3.07,4.05-3.07,6.18,0,1.82,.49,3.8,2.18,5.44,1.55,1.47,3.62,2.22,6.15,2.22H25.04c2.54,0,4.6-.73,6.14-2.24,1.71-1.62,2.19-3.6,2.19-5.42,0-2.11-.7-4.51-3.06-6.18Zm-20.11-6.42h12.98c1.35,0,2.2,.91,2.2,2.53,0,1.73-.76,2.29-3.01,2.29H11c-2.27,0-3-.55-3-2.29,0-1.62,.86-2.53,2.2-2.53Zm14.82,15H8.35c-1.35,0-2.26-.94-2.26-2.47s.88-2.46,2.26-2.46H25.02c1.4,0,2.25,.88,2.25,2.46s-.9,2.47-2.25,2.47Z"/>
  <path class="cls-2" d="M50.97,198.16h-4.06l-8.68,13.6h3.76l1.62-2.53h10.66l1.62,2.53h3.76l-8.68-13.6Zm-5.55,8.22l3.43-5.38h.19l3.41,5.38h-7.03Z"/>
  <polygon class="cls-2" points="76.75 207.6 65.11 198.15 62.23 198.15 62.23 211.75 65.53 211.75 65.53 202.43 77.18 211.75 80.05 211.75 80.05 198.15 76.75 198.15 76.75 207.6"/>
  <path class="cls-2" d="M70.01,196.54c0-.06,.02-.1,.02-.13,.04,0,.08,.03,.11,.05,.08,.04,.15,.08,.21,.11,.3,.16,.78,.43,1.49,.43,1.07,0,1.62-.7,1.89-1.15,.29-.51,.45-1.08,.52-1.39l.15-.65h-2.02l-.12,.46s-.02,.09-.02,.13h0s-.09-.05-.15-.08c-.07-.03-.13-.06-.19-.1-.15-.08-.35-.17-.58-.26-.24-.08-.52-.15-.86-.15-1.08,0-1.65,.67-1.92,1.13-.3,.5-.44,1.09-.51,1.4l-.14,.65h2.01l.12-.46Z"/>
  <path class="cls-2" d="M101.92,201.47c-1.12-1.96-3.26-3.31-6.33-3.31h-5.28c-3.06,0-5.2,1.34-6.32,3.28-.65,1.1-.87,2.3-.87,3.46s.19,2.41,.87,3.57c1.12,1.93,3.27,3.29,6.32,3.29h5.28c3.04,0,5.21-1.35,6.32-3.29,.65-1.1,.86-2.32,.86-3.48s-.21-2.4-.85-3.52Zm-3.56,6.41c-.73,.7-1.62,1.03-2.79,1.03h-5.24c-1.17,0-2.06-.33-2.79-1.02-.81-.77-1.12-1.82-1.12-2.89v-.08c0-1.08,.31-2.12,1.12-2.9,.73-.69,1.62-1.02,2.79-1.02h5.24c1.17,0,2.05,.33,2.78,1.02,.83,.78,1.13,1.84,1.13,2.92s-.3,2.15-1.12,2.94Z"/>
  <path class="cls-2" d="M122.03,204.71c-.8-.77-1.92-1.18-3.25-1.18h-8.99c-.68,0-1.13-.46-1.13-1.28s.47-1.25,1.13-1.25h12.86v-2.85h-12.88c-1.34,0-2.42,.42-3.24,1.2-.91,.86-1.17,1.97-1.17,2.94s.26,2.04,1.17,2.91c.81,.77,1.9,1.18,3.24,1.18h8.99c.69,0,1.13,.47,1.13,1.27s-.46,1.26-1.13,1.26h-12.85v2.85h12.87c1.34,0,2.45-.42,3.25-1.2,.89-.87,1.15-1.98,1.15-2.94s-.25-2.04-1.16-2.91Z"/>
  <text class="cls-1" transform="translate(8.86 152.12)"><tspan x="0" y="0">EXPERIENCIA:</tspan></text>
  <path class="cls-2" d="M19.46,0H114.32V105.46H8.87V10.6C8.87,4.75,13.62,0,19.46,0Z"/>
  <g>
    <path class="cls-3" d="M36.29,64.88h7.29c0-1.53-.23-2.96,.08-4.26,.2-.85,1.31-2.19,1.8-2.1,.92,.16,2.1,1.04,2.41,1.9,.45,1.27,.23,2.78,.31,4.45h10.99c0-3.29,.02-6.62,0-9.94-.02-1.64,.22-3.47,2.18-3.19,.92,.13,2.14,1.99,2.25,3.16,.31,3.22,.11,6.48,.11,9.93h11.19c0-1.35-.26-2.78,.09-4.06,.25-.91,1.29-1.61,1.98-2.4,.76,.73,1.91,1.33,2.2,2.22,.42,1.27,.22,2.75,.28,4.28h6.52c.27-6.04,0-11.84-1.8-17.51-.7-2.2-2.27-2.63-4.32-2.55-3.86,.15-7.13-1.27-9.23-4.51-.61-.94-.1-2.62-.1-3.96,1.19,.35,2.84,.34,3.49,1.13,1.78,2.2,3.96,3,6.6,2.82,3.81-.26,6.22,1.52,7.53,4.96,2.71,7.1,2.73,14.48,2.16,21.9-.21,2.76-2.4,2.35-4.21,2.35-14.58,.02-29.16,.01-43.74,.01-2.29,0-4.61,.24-6.85-.1-1.09-.17-2.88-1.46-2.86-2.19,.21-6.6,.23-13.29,1.37-19.76,1.01-5.75,3.23-6.67,9.12-7.3,1.94-.21,3.94-1.51,5.53-2.79,1.3-1.04,2.53-2.32,3.77-.83,.61,.74,.33,2.91-.34,3.89-2.1,3.06-5.25,4.61-8.98,4.36-2.86-.19-4.4,1.08-4.77,3.7-.75,5.33-1.33,10.69-2.03,16.4Z"/>
    <path class="cls-3" d="M78.46,50.79c-.69-.96-1.34-2.13-1.5-3.27-.15-1.11-.34-2.12-.58-3.06-1.01-4.04-2.82-6.55-5.88-8.07-1.05-.54-2.24-.95-3.59-1.28-1.42-.35-2.65-1.47-4.05-2.02-.81-.31-2.37-.55-2.58-.2-1.49,2.4-4.16,1.83-6.18,2.79-.55,.26-1.15,.53-1.74,.81-1.46,.71-2.89,1.53-3.5,2.71-.88,1.71-1.66,3.48-2.37,5.28-1.03,2.61-1.9,5.3-2.69,7.98-.2,.68,2.11,2.11,3.36,3.27,1.36,2.98,2.52,6.15,3.99,9.15,.58,1.2,1.22,2.37,1.93,3.49,.26,.41,.55,.8,.87,1.15,3.35,3.9,9.19,4.29,13.52,1.06,.45-.34,.88-.69,1.27-1.06,1.49-1.37,2.63-2.95,3.5-4.68,1.09-2.18,1.75-4.61,2.13-7.14,.26-1.76,.5-2.97,2.81-3.1,2.14-.12,2.56-2.03,1.28-3.81Zm-12.35,14.78c-2.41,3.59-6.62,3.45-9.42,.13-.23-.27-.44-.54-.65-.82-2.1-2.81-3.16-6.05-3.31-9.86h17c.35,.27,.7,.55,1.04,.82-1.4,3-2.49,6.2-4.2,9-.15,.25-.3,.49-.46,.73Zm6.1-15.41h-21.65c-.79-6.85,2.16-10.61,8.42-10.51,.07,1.23-.11,2.58,.29,3.72,.32,.93,1.33,1.63,2.04,2.43,.78-.74,1.9-1.35,2.24-2.26,.43-1.15,.21-2.54,.28-4.04,6.46,.43,8.92,3.64,8.38,10.66Z"/>
  </g>
</svg>