<?xml version="1.0" encoding="UTF-8"?>
<svg id="FONDO" xmlns="http://www.w3.org/2000/svg" viewBox="0 0 119.17 220.25">
  <defs>
    <style>
      .cls-1 {
        font-family: CenturyGothic, 'Century Gothic';
        font-size: 16.38px;
      }

      .cls-1, .cls-2, .cls-3 {
        fill: #020202;
      }

      .cls-4 {
        fill: #f19104;
      }

      .cls-5 {
        letter-spacing: .05em;
      }

      .cls-6 {
        letter-spacing: 0em;
      }

      .cls-3 {
        font-family: LOGOTYPE-ExtraBold, LOGOTYPE;
        font-size: 37.24px;
      }
    </style>
  </defs>
  <text class="cls-3" transform="translate(0 209.38)"><tspan class="cls-6" x="0" y="0">55</tspan><tspan class="cls-5" x="78.23" y="0">5</tspan></text>
  <text class="cls-1" transform="translate(11.13 132.46)"><tspan x="0" y="0">PROYECTOS</tspan><tspan x="-.58" y="19.66">DISEÑADOS:</tspan></text>
  <path class="cls-2" d="M16.52,0H111.38V105.46H5.92V10.6C5.92,4.75,10.67,0,16.52,0Z"/>
  <path class="cls-4" d="M49.14,51.82c-3.49-1.67-6.45-3.33-9.61-4.44-.93-.32-3.29,.7-3.51,1.51-2.94,10.8-5.61,21.68-8.33,32.54-.1,.38,.05,.83,.16,2.09,13.58-5.92,26.79-11.67,40.66-17.72-3.2-2.68-5.7-4.88-8.32-6.93-1.6-1.26-1.95-2.58-1.34-4.55,.91-2.9,1.54-5.9,2.18-8.87,.6-2.8,1.5-5.42,.27-8.52-1.16-2.92,.25-5.83,2.99-7.64,6.27-4.14,12.54-8.28,18.93-12.23,3.41-2.1,7.8-.92,10.16,2.34,2.08,2.88,1.58,7.71-1.63,9.94-6.52,4.53-13.24,8.79-20.02,12.93-1.36,.83-3.33,.68-5.48,1.06-.82,3.44-1.8,7.2-2.53,11.01-.14,.71,.54,1.81,1.15,2.4,1.49,1.43,3.18,2.64,4.76,3.98,4.01,3.4,3.5,7.94-1.29,10.09-8.73,3.92-17.53,7.69-26.31,11.51-3.59,1.56-7.16,3.19-10.79,4.65-4.96,2-9.21-1.18-8.01-6.35,2.65-11.44,5.63-22.81,8.65-34.17,.81-3.05,5.14-4.97,8.43-3.65,4.54,1.81,8.91,4.04,13.29,6.22,1.9,.94,1.96,2.34,.54,3.97-3.72,4.27-7.27,8.7-11.11,12.85-.76,.83-2.94,1.41-3.73,.92-1.75-1.07-.64-2.65,.38-3.86,3.01-3.57,6.05-7.11,9.45-11.1Zm19.19-13.05c1.11-.46,1.76-.62,2.29-.96,5.93-3.82,11.92-7.57,17.7-11.62,.93-.65,.88-2.7,1.29-4.1-1.46-.31-3.36-1.37-4.31-.81-6.26,3.69-12.37,7.65-18.38,11.74-.79,.53-1.26,2.37-1,3.38,.25,.98,1.64,1.66,2.42,2.37Z"/>
</svg>