<?xml version="1.0" encoding="UTF-8"?>
<svg id="FONDO" xmlns="http://www.w3.org/2000/svg" viewBox="0 0 270.92 211.75">
  <defs>
    <style>
      .cls-1 {
        font-family: CenturyGothic, 'Century Gothic';
        font-size: 16.38px;
      }

      .cls-1, .cls-2 {
        fill: #020202;
      }

      .cls-3 {
        fill: #f19104;
      }
    </style>
  </defs>
  <path class="cls-2" d="M3.42,187.5c0,.84-.45,.95-.64,.95H0v5.24H3.42v18.07h6.09v-25.53H3.42v1.27Z"/>
  <path class="cls-2" d="M19.59,187.5c0,.84-.45,.95-.64,.95h-2.78v5.24h3.42v18.07h6.09v-25.53h-6.09v1.27Z"/>
  <path class="cls-2" d="M62.34,186.22h-7.16l-22.84,17.04v4.67h23.91v3.82h6.09v-3.82h3.36v-5.16h-3.36v-16.55Zm-6.09,16.55h-14.2l14.2-10.33v10.33Z"/>
  <rect class="cls-2" x="74.19" y="206.13" width="6.29" height="5.42"/>
  <path class="cls-2" d="M257.34,195.21c0-.4,.08-.82,.25-.98,.19-.18,.46-.27,.75-.27h8.47c1.26,0,2.26-.4,3.02-1.11,.87-.82,1.1-1.85,1.1-2.76,0-.65-.12-1.35-.49-1.99-.64-1.08-1.87-1.87-3.63-1.87h-12.57v2.65h12.54c.65,0,1.09,.44,1.09,1.22s-.44,1.23-1.09,1.23h-8.47c-2.02,0-3.28,.99-3.81,2.24-.25,.57-.26,1.33-.26,1.81v3.63h16.15v-2.64h-13.04v-1.15Z"/>
  <g>
    <path class="cls-2" d="M93.33,0h94.86V105.46H82.73V10.6c0-5.85,4.75-10.6,10.6-10.6Z"/>
    <path class="cls-2" d="M109.59,186.22h-8.16c-5.73,0-9.75,2.53-11.85,6.16-1.22,2.07-1.64,4.33-1.64,6.49s.36,4.53,1.64,6.71c2.11,3.62,6.15,6.16,11.85,6.16h8.16c5.71,0,9.78-2.53,11.87-6.16,1.22-2.07,1.62-4.36,1.62-6.53s-.4-4.51-1.6-6.62c-2.11-3.67-6.13-6.22-11.89-6.22Zm5.2,18.25c-1.36,1.31-3.04,1.93-5.24,1.93h-8.09c-2.18,0-3.85-.62-5.22-1.91-1.53-1.45-2.11-3.42-2.11-5.42v-.16c0-2.02,.58-3.98,2.11-5.44,1.36-1.29,3.04-1.91,5.22-1.91h8.09c2.2,0,3.85,.62,5.22,1.91,1.56,1.47,2.11,3.45,2.11,5.47s-.55,4.04-2.09,5.53Z"/>
    <path class="cls-2" d="M150.49,186.22h-8.16c-5.73,0-9.75,2.53-11.85,6.16-1.22,2.07-1.64,4.33-1.64,6.49s.36,4.53,1.64,6.71c2.11,3.62,6.15,6.16,11.85,6.16h8.16c5.71,0,9.78-2.53,11.87-6.16,1.22-2.07,1.62-4.36,1.62-6.53s-.4-4.51-1.6-6.62c-2.11-3.67-6.13-6.22-11.89-6.22Zm5.2,18.25c-1.36,1.31-3.04,1.93-5.24,1.93h-8.09c-2.18,0-3.85-.62-5.22-1.91-1.53-1.45-2.11-3.42-2.11-5.42v-.16c0-2.02,.58-3.98,2.11-5.44,1.36-1.29,3.04-1.91,5.22-1.91h8.09c2.2,0,3.85,.62,5.22,1.91,1.56,1.47,2.11,3.45,2.11,5.47s-.55,4.04-2.09,5.53Z"/>
    <path class="cls-2" d="M191.39,186.22h-8.16c-5.73,0-9.75,2.53-11.85,6.16-1.22,2.07-1.64,4.33-1.64,6.49s.36,4.53,1.64,6.71c2.11,3.62,6.15,6.16,11.85,6.16h8.16c5.71,0,9.78-2.53,11.87-6.16,1.22-2.07,1.62-4.36,1.62-6.53s-.4-4.51-1.6-6.62c-2.11-3.67-6.13-6.22-11.89-6.22Zm5.2,18.25c-1.36,1.31-3.04,1.93-5.24,1.93h-8.09c-2.18,0-3.85-.62-5.22-1.91-1.53-1.45-2.11-3.42-2.11-5.42v-.16c0-2.02,.58-3.98,2.11-5.44,1.36-1.29,3.04-1.91,5.22-1.91h8.09c2.2,0,3.85,.62,5.22,1.91,1.56,1.47,2.11,3.45,2.11,5.47s-.55,4.04-2.09,5.53Z"/>
    <polygon class="cls-2" points="230.6 205.3 217.84 186.22 211.54 186.22 211.54 211.73 217.74 211.73 217.74 196.81 227.73 211.75 233.42 211.75 243.44 196.77 243.44 211.73 249.64 211.73 249.64 186.22 243.34 186.22 230.6 205.3"/>
    <text class="cls-1" transform="translate(87.77 132.46)"><tspan x="0" y="0">ÁREA TOTAL</tspan><tspan x="-6.33" y="19.66">CONSTRUIDA:</tspan></text>
    <g>
      <path class="cls-3" d="M144.61,83.79h12.97v-6.13c-.77-.25-1.68-.52-2.55-.84-3.9-1.44-6-4.26-6.04-8.41-.07-5.99-.07-11.99,.01-17.98,.07-4.73,2.98-8.23,7.53-8.83,2.35-.31,4.81-.3,7.16,0,4.46,.56,7.51,4.14,7.6,8.81,.11,5.99,.12,11.99,.02,17.98-.08,4.91-2.48,7.34-8.89,9.35v6.21c1.92,0,3.8-.28,5.53,.1,1.21,.27,3.01,1.31,3.17,2.24,.34,2.08-1.57,2.14-3.16,2.14-12.97,0-25.93,0-38.9,0-8.5,0-17-.1-25.5,.05-3.08,.06-3.96-1.19-3.95-4.06,.07-21.14,.05-42.27,.06-63.41,0-4.03,1.07-4.77,4.7-3.36,12.26,4.77,24.5,9.61,36.82,14.23,2.62,.98,3.4,2.35,3.38,5.05-.12,14.93-.06,29.86-.05,44.78,0,.64,.07,1.27,.11,2.09Zm-13.61-.07c0-2.25-.23-4.33,.11-6.32,.14-.85,1.45-1.5,2.22-2.25,.71,.78,1.89,1.49,2.02,2.36,.3,2,.1,4.07,.1,6.19h4.53c0-15.37,.03-30.49-.08-45.61,0-.83-1.01-2.07-1.84-2.41-9.57-3.86-19.19-7.6-28.81-11.34-1.55-.6-3.17-1.04-4.86-1.58v60.93h4.26c0-2.19-.25-4.19,.11-6.07,.18-.93,1.5-1.63,2.3-2.44,.7,.79,1.87,1.51,2.01,2.39,.3,1.99,.1,4.06,.1,6.15h17.85Zm31.27-10.99c3.3-.45,4.49-2.25,4.51-4.94,.05-5.56,.02-11.11,.02-16.67,0-2.43-.99-4.45-3.41-4.94-2.08-.42-4.48-.57-6.42,.08-1.42,.48-3.25,2.41-3.32,3.79-.35,6.18-.22,12.4-.09,18.6,.05,2.34,1.5,3.67,4.25,3.98,0-4.29-.15-8.42,.11-12.52,.06-1.01,1.44-1.95,2.21-2.92,.71,1.01,1.98,1.99,2.05,3.03,.24,4.01,.1,8.04,.1,12.49Z"/>
      <path class="cls-3" d="M124.11,70.47h-4.17v-4.12h4.17v4.12Z"/>
      <path class="cls-3" d="M108.81,61.32v-3.98h4.14v3.98h-4.14Z"/>
      <path class="cls-3" d="M131.17,70.39v-4.1h4.11v4.1h-4.11Z"/>
      <path class="cls-3" d="M112.92,34.61h-4.1v-4.11h4.1v4.11Z"/>
      <path class="cls-3" d="M131.09,43.65v-4.09h4.18v4.09h-4.18Z"/>
      <path class="cls-3" d="M124.18,39.53v4.03h-4.24v-4.03h4.24Z"/>
      <path class="cls-3" d="M108.83,66.26h4.17v4.15h-4.17v-4.15Z"/>
      <path class="cls-3" d="M124.03,61.43h-4.04v-4.15c1.27-.06,2.52-.12,4.04-.19v4.34Z"/>
      <path class="cls-3" d="M112.98,43.67h-4.12c-.07-1.34-.14-2.68-.21-4.2h4.33v4.2Z"/>
      <path class="cls-3" d="M135.28,57.06v4.35h-4.02v-4.1c1.14-.07,2.37-.14,4.02-.24Z"/>
      <path class="cls-3" d="M131.28,48.41h3.99v4.06h-3.99v-4.06Z"/>
      <path class="cls-3" d="M119.83,79.3v-3.89h4.26v3.89h-4.26Z"/>
      <path class="cls-3" d="M108.78,52.51v-4.01h4.23v4.01h-4.23Z"/>
      <path class="cls-3" d="M124.15,48.57v3.87h-4.1v-3.87h4.1Z"/>
    </g>
  </g>
</svg>