<?xml version="1.0" encoding="UTF-8"?>
<svg id="FONDO" xmlns="http://www.w3.org/2000/svg" viewBox="0 0 119.17 220.25">
  <defs>
    <style>
      .cls-1 {
        font-family: CenturyGothic, 'Century Gothic';
        font-size: 16.38px;
      }

      .cls-1, .cls-2, .cls-3 {
        fill: #020202;
      }

      .cls-4 {
        fill: #f19104;
      }

      .cls-5 {
        letter-spacing: .05em;
      }

      .cls-6 {
        letter-spacing: 0em;
      }

      .cls-3 {
        font-family: LOGOTYPE-ExtraBold, LOGOTYPE;
        font-size: 37.24px;
      }
    </style>
  </defs>
  <path class="cls-2" d="M16.52,0H111.38V105.46H5.92V10.6C5.92,4.75,10.67,0,16.52,0Z"/>
  <text class="cls-3" transform="translate(0 209.38)"><tspan class="cls-6" x="0" y="0">55</tspan><tspan class="cls-5" x="78.23" y="0">5</tspan></text>
  <text class="cls-1" transform="translate(11.12 132.46)"><tspan x="0" y="0">PROYECTOS</tspan><tspan x="-6.34" y="19.66">EJECUTADOS:</tspan></text>
  <g>
    <path class="cls-4" d="M34.28,37.04c-2.53,0-4.92,.05-7.31-.02-1.58-.04-3.58,.25-3.65-2.17-.07-2.51,1.93-2.18,3.53-2.21,2.38-.04,4.77,0,7.35,0-.12-7.46,5.58-3.32,8.63-4.75,2.47-7.04,10.06-11.64,18.1-10.88,6.42,.61,13.25,5.86,13.98,10.74,2.8,1.93,8.94-2.82,8.85,4.89,2.87,0,5.6-.18,8.27,.1,.95,.1,1.78,1.31,2.67,2.02-.85,.76-1.64,2.07-2.56,2.17-2.68,.29-5.4,.1-8.03,.1q-1.02,3.98-9.41,4.65c0,1.63-.07,3.33,.02,5.02,.15,2.78-1,4.05-3.86,3.78-1.51-.14-3.04-.03-5.09-.03v15.24c4.74,1.01,5.22,1.58,4.45,8.53-.66,5.98-5.78,1.62-8.67,3.71v6.06c1,0,2.14,0,3.28,0,7.85,0,15.7-.03,23.55,0,1.52,0,3.12-.04,4.53,.4,.76,.24,1.52,1.41,1.68,2.28,.08,.42-1.18,1.45-1.93,1.57-1.7,.28-3.47,.22-5.22,.22-20.06,0-40.12,0-60.18,0-.55,0-1.23,.19-1.61-.06-.86-.58-1.57-1.38-2.34-2.1,.76-.76,1.4-1.78,2.31-2.21,.81-.38,1.93-.11,2.91-.11,9.25,0,18.5,0,27.99,0v-6.64c-1.86,0-3.68-.09-5.49,.02-2.29,.14-3.17-1.01-3.19-3.1,0-1.31,.16-2.63,.01-3.92-.33-3.04,.77-4.64,4.21-4.21v-15.68c-1.82,0-3.54-.11-5.25,.03-2.61,.2-3.55-.98-3.4-3.47,.11-1.71,.02-3.43,.02-4.84-3.09-2.3-9.39,2.6-9.13-5.12Zm35.94,8.77c0-6.13,.04-11.87-.04-17.61-.01-.76-.43-1.73-1-2.24-3.53-3.18-7.59-5.31-12.44-4.2-3.56,.82-8.04,1.97-8.6,5.93-.84,5.91-.22,12.03-.22,18.12h22.3Zm-13.23,4.73v15.39h4v-15.39h-4Zm-4.85,21.2c.09,.37,.17,.73,.26,1.1,3.84,0,7.69,.05,11.53-.06,.6-.02,1.18-.79,1.77-1.21-.59-.3-1.18-.85-1.78-.87-3.25-.09-6.51-.1-9.76,0-.68,.02-1.35,.67-2.02,1.03Zm-13.09-34.96h4.14v-3.9h-4.14v3.9Zm35.88-4v4.27c1.51-.09,2.73-.16,3.86-.22v-4.04h-3.86Z"/>
    <path class="cls-4" d="M72.53,81.59v-3.99h4.21v3.99h-4.21Z"/>
    <path class="cls-4" d="M45.27,81.69h-4.07v-4.13h4.07v4.13Z"/>
    <path class="cls-4" d="M81.43,70.83h4.32v4.07h-4.12c-.06-1.22-.12-2.46-.2-4.07Z"/>
    <path class="cls-4" d="M32.35,74.94v-4.08h4.03v4.08h-4.03Z"/>
    <path class="cls-4" d="M27.56,64.2v3.89h-4.1v-3.89h4.1Z"/>
    <path class="cls-4" d="M94.57,64.16v3.99h-4.02v-3.99h4.02Z"/>
    <path class="cls-4" d="M58.78,43.77c-.75,0-1.73,.3-2.21-.07-.81-.61-1.96-1.77-1.83-2.48,.53-2.78,3.02-1.97,4.74-1.8,1.33,.13,2.56,1.19,3.83,1.83-.66,.84-1.17,1.91-2.01,2.45-.61,.39-1.67,.08-2.53,.08,0,0,0-.01,0-.02Z"/>
    <path class="cls-4" d="M58.69,30.3c-.65,0-1.42,.23-1.91-.05-.83-.47-2.15-1.4-2.05-1.88,.2-.92,1.11-2.08,1.97-2.36,1.27-.41,2.86-.45,4.13-.07,.97,.3,1.66,1.51,2.48,2.31-.9,.69-1.73,1.5-2.71,2.03-.5,.27-1.27,.05-1.91,.05v-.03Z"/>
    <path class="cls-4" d="M58.88,36.98c-.76,0-1.68,.27-2.25-.06-.82-.47-1.91-1.37-1.91-2.09,0-.72,1.08-1.82,1.9-2.07,1.2-.36,2.66-.37,3.87-.04,1.04,.28,1.89,1.25,2.82,1.91-.93,.79-1.81,1.67-2.83,2.34-.38,.25-1.06,.04-1.61,.04v-.04Z"/>
  </g>
</svg>