<?xml version="1.0" encoding="UTF-8"?>
<svg id="FONDO" xmlns="http://www.w3.org/2000/svg" viewBox="0 0 119.17 220.25">
  <defs>
    <style>
      .cls-1 {
        font-family: CenturyGothic, 'Century Gothic';
        font-size: 16.38px;
      }

      .cls-1, .cls-2, .cls-3 {
        fill: #020202;
      }

      .cls-4 {
        fill: #f19104;
      }

      .cls-5 {
        letter-spacing: .05em;
      }

      .cls-6 {
        letter-spacing: 0em;
      }

      .cls-3 {
        font-family: LOGOTYPE-ExtraBold, LOGOTYPE;
        font-size: 37.24px;
      }
    </style>
  </defs>
  <text class="cls-3" transform="translate(0 209.38)"><tspan class="cls-6" x="0" y="0">55</tspan><tspan class="cls-5" x="78.23" y="0">5</tspan></text>
  <text class="cls-1" transform="translate(31.72 132.46)"><tspan x="0" y="0">OBRAS</tspan><tspan x="-31.16" y="19.66">CONSTRUIDAS:</tspan></text>
  <path class="cls-2" d="M16.52,0H111.38V105.46H5.93V10.6C5.93,4.75,10.67,0,16.52,0Z"/>
  <g>
    <path class="cls-4" d="M29.44,61.73c4.89,0,9.76,0,14.63,0,.87,0,1.84-.23,2.59,.07,.97,.39,1.77,1.21,2.64,1.84-.83,.81-1.61,2.25-2.48,2.31-4.12,.28-8.27,.19-12.42,.22-1.61,.01-3.21,0-5.08,0v17.78h15.51c0-2.76-.21-5.47,.1-8.11,.12-1.04,1.41-1.94,2.16-2.9,.75,.97,2.02,1.88,2.15,2.92,.31,2.56,.1,5.19,.1,8.01h22.35c0-2.6,0-5.18,0-7.76,0-1.65,.2-3.16,2.35-3.15,2.26,0,2.18,1.68,2.19,3.24,0,2.49,0,4.98,0,7.73h15.7c0-3.01,0-6.01,0-9.01-.02-11.34-.05-22.67-.07-34.01,0-1.73-.25-4.01,2.31-3.64,.87,.12,2.06,2.33,2.07,3.6,.15,14.6,.06,29.21,.15,43.81,.02,3.03-1.25,3.93-4.15,3.92-20.92-.08-41.84-.04-62.76-.05-4.49,0-4.75-.29-4.75-4.85,0-20.81,0-41.62,0-62.42,0-4.12,.31-4.45,4.45-4.45,14.28,0,28.56-.01,42.85,0,3.95,0,4.18,.25,4.19,4.34,.01,5.12,0,10.24,0,15.89,1.7,0,3.28-.01,4.86,0,1.71,.01,3.97-.39,3.98,2.12,.01,2.65-2.28,2.38-4.14,2.37-1.41,0-2.82,0-4.46,0v20.1c1.88,0,3.85-.27,5.7,.1,1.1,.22,2.01,1.42,3.01,2.18-.93,.73-1.84,2.07-2.78,2.09-7.85,.17-15.7,.16-23.54-.01-.94-.02-1.86-1.36-2.79-2.09,1-.74,1.96-2.07,3-2.13,4.1-.25,8.22-.1,12.5-.1V21.6h-15.33v15.47c1.98,0,4.03-.23,5.99,.1,1.02,.17,1.87,1.32,2.79,2.03-.87,.78-1.67,2.12-2.61,2.23-2.69,.31-5.44,.14-8.16,.12-2.2-.01-2.7-1.47-2.71-3.3-.01-4.36,0-8.72,0-13.08,0-1.17,0-2.34,0-3.65H29.44V61.73Z"/>
    <path class="cls-4" d="M38.05,43.89v4.09h-4.19v-4.09h4.19Z"/>
    <path class="cls-4" d="M33.89,56.92v-4.04h4.1v4.04h-4.1Z"/>
    <path class="cls-4" d="M46.96,52.9v4.02h-4.05v-4.02h4.05Z"/>
  </g>
</svg>