<?xml version="1.0" encoding="UTF-8"?>
<svg id="FONDO" xmlns="http://www.w3.org/2000/svg" viewBox="0 0 2976.8 376.29">
  <defs>
    <style>
      .cls-1 {
        fill: #f19104;
      }

      .cls-2 {
        fill: #020202;
      }
    </style>
  </defs>
  <g>
    <path class="cls-2" d="M1517.01,315.32c0,1.27-.69,1.44-.97,1.44h-4.22v7.95h5.19v27.45h9.25v-38.77h-9.25v1.93Z"/>
    <path class="cls-2" d="M1541.57,315.32c0,1.27-.69,1.44-.97,1.44h-4.22v7.95h5.19v27.45h9.25v-38.77h-9.25v1.93Z"/>
    <path class="cls-2" d="M1606.5,313.39h-10.88l-34.68,25.87v7.1h36.31v5.8h9.25v-5.8h5.11v-7.84h-5.11v-25.13Zm-9.25,25.13h-21.56l21.56-15.68v15.68Z"/>
    <rect class="cls-2" x="1624.48" y="343.62" width="9.55" height="8.23"/>
    <path class="cls-2" d="M1902.62,327.03c0-.61,.12-1.24,.37-1.49,.29-.28,.7-.41,1.13-.41h12.86c1.91,0,3.44-.61,4.59-1.69,1.33-1.24,1.67-2.8,1.67-4.19,0-.98-.18-2.04-.75-3.03-.97-1.64-2.85-2.85-5.51-2.85h-19.09v4.02h19.05c.99,0,1.66,.66,1.66,1.85s-.66,1.86-1.66,1.86h-12.86c-3.07,0-4.99,1.51-5.79,3.4-.37,.87-.4,2.02-.4,2.75v5.51h24.53v-4.01h-19.81v-1.74Z"/>
    <g>
      <path class="cls-2" d="M1648.05,30.59h149.55V190.73h-160.15V41.18c0-5.85,4.75-10.6,10.6-10.6Z"/>
      <path class="cls-2" d="M1678.25,313.39h-12.4c-8.7,0-14.8,3.84-18,9.36-1.85,3.15-2.49,6.57-2.49,9.86s.55,6.88,2.49,10.19c3.2,5.49,9.33,9.36,18,9.36h12.4c8.67,0,14.85-3.84,18.03-9.36,1.85-3.15,2.46-6.63,2.46-9.91s-.61-6.85-2.43-10.05c-3.2-5.58-9.31-9.44-18.06-9.44Zm7.9,27.72c-2.07,1.99-4.61,2.93-7.95,2.93h-12.29c-3.31,0-5.85-.94-7.92-2.9-2.32-2.21-3.2-5.19-3.2-8.23v-.25c0-3.06,.88-6.05,3.2-8.26,2.07-1.96,4.61-2.9,7.92-2.9h12.29c3.34,0,5.85,.94,7.92,2.9,2.37,2.24,3.2,5.25,3.2,8.31s-.83,6.13-3.18,8.39Z"/>
      <path class="cls-2" d="M1740.36,313.39h-12.4c-8.7,0-14.8,3.84-18,9.36-1.85,3.15-2.49,6.57-2.49,9.86s.55,6.88,2.49,10.19c3.2,5.49,9.33,9.36,18,9.36h12.4c8.67,0,14.85-3.84,18.03-9.36,1.85-3.15,2.46-6.63,2.46-9.91s-.61-6.85-2.43-10.05c-3.2-5.58-9.31-9.44-18.06-9.44Zm7.9,27.72c-2.07,1.99-4.61,2.93-7.95,2.93h-12.29c-3.31,0-5.85-.94-7.92-2.9-2.32-2.21-3.2-5.19-3.2-8.23v-.25c0-3.06,.88-6.05,3.2-8.26,2.07-1.96,4.61-2.9,7.92-2.9h12.29c3.34,0,5.85,.94,7.92,2.9,2.37,2.24,3.2,5.25,3.2,8.31s-.83,6.13-3.18,8.39Z"/>
      <path class="cls-2" d="M1802.47,313.39h-12.4c-8.7,0-14.8,3.84-18,9.36-1.85,3.15-2.49,6.57-2.49,9.86s.55,6.88,2.49,10.19c3.2,5.49,9.33,9.36,18,9.36h12.4c8.67,0,14.85-3.84,18.03-9.36,1.85-3.15,2.46-6.63,2.46-9.91s-.61-6.85-2.43-10.05c-3.2-5.58-9.31-9.44-18.06-9.44Zm7.9,27.72c-2.07,1.99-4.61,2.93-7.95,2.93h-12.29c-3.31,0-5.85-.94-7.92-2.9-2.32-2.21-3.2-5.19-3.2-8.23v-.25c0-3.06,.88-6.05,3.2-8.26,2.07-1.96,4.61-2.9,7.92-2.9h12.29c3.34,0,5.85,.94,7.92,2.9,2.37,2.24,3.2,5.25,3.2,8.31s-.83,6.13-3.18,8.39Z"/>
      <polygon class="cls-2" points="1862.01 342.35 1842.63 313.39 1833.07 313.39 1833.07 352.13 1842.49 352.13 1842.49 329.46 1857.65 352.15 1866.29 352.15 1881.51 329.4 1881.51 352.13 1890.92 352.13 1890.92 313.39 1881.37 313.39 1862.01 342.35"/>
      <g>
        <path class="cls-2" d="M1654.58,213.87l8.33,17.87h-1.93l-2.81-5.88h-7.7l-2.78,5.88h-1.99l8.44-17.87h.44Zm-.23,3.8l-3.06,6.47h6.11l-3.05-6.47Zm.78-8.95h2.61l-3.58,3.74h-1.68l2.65-3.74Z"/>
        <path class="cls-2" d="M1665.78,213.87h3.56c1.98,0,3.33,.08,4.03,.25,1.06,.24,1.92,.76,2.59,1.56,.66,.8,1,1.78,1,2.95,0,.97-.23,1.83-.69,2.57-.46,.74-1.11,1.3-1.96,1.67-.85,.38-2.03,.57-3.52,.58l6.43,8.3h-2.21l-6.43-8.3h-1.01v8.3h-1.79v-17.87Zm1.79,1.75v6.07l3.08,.03c1.19,0,2.07-.12,2.65-.34,.57-.23,1.02-.59,1.34-1.09s.48-1.05,.48-1.67-.16-1.14-.49-1.63-.75-.84-1.28-1.05c-.53-.21-1.4-.32-2.63-.32h-3.15Z"/>
        <path class="cls-2" d="M1680.8,213.87h10.24v1.75h-8.46v5.6h8.38v1.75h-8.38v7.02h8.38v1.75h-10.17v-17.87Z"/>
        <path class="cls-2" d="M1701.43,213.87l8.33,17.87h-1.93l-2.81-5.88h-7.7l-2.78,5.88h-1.99l8.44-17.87h.44Zm-.23,3.8l-3.06,6.47h6.11l-3.05-6.47Z"/>
        <path class="cls-2" d="M1717.65,215.62v-1.75h9.79v1.75h-3.98v16.12h-1.82v-16.12h-3.98Z"/>
        <path class="cls-2" d="M1738.52,213.42c2.71,0,4.97,.9,6.8,2.71,1.82,1.81,2.74,4.03,2.74,6.67s-.91,4.83-2.73,6.66c-1.82,1.82-4.04,2.73-6.66,2.73s-4.89-.9-6.71-2.72c-1.82-1.82-2.73-4.01-2.73-6.58,0-1.72,.42-3.31,1.25-4.78s1.96-2.61,3.4-3.44c1.44-.83,2.99-1.25,4.66-1.25Zm.08,1.74c-1.32,0-2.58,.34-3.76,1.03-1.18,.69-2.11,1.62-2.77,2.79-.67,1.17-1,2.47-1,3.9,0,2.12,.74,3.92,2.21,5.38,1.47,1.46,3.25,2.19,5.32,2.19,1.39,0,2.67-.34,3.85-1.01,1.18-.67,2.1-1.59,2.76-2.76,.66-1.17,.99-2.46,.99-3.89s-.33-2.7-.99-3.85c-.66-1.15-1.59-2.07-2.79-2.76-1.2-.69-2.48-1.03-3.82-1.03Z"/>
        <path class="cls-2" d="M1749.86,215.62v-1.75h9.79v1.75h-3.98v16.12h-1.82v-16.12h-3.98Z"/>
        <path class="cls-2" d="M1769.54,213.87l8.33,17.87h-1.93l-2.81-5.88h-7.7l-2.78,5.88h-1.99l8.44-17.87h.44Zm-.23,3.8l-3.06,6.47h6.11l-3.05-6.47Z"/>
        <path class="cls-2" d="M1780.64,213.87h1.79v16.15h6.88v1.73h-8.66v-17.87Z"/>
        <path class="cls-2" d="M1654.31,247.04l-1.41,1.08c-.78-1.01-1.71-1.78-2.8-2.3-1.09-.52-2.29-.79-3.59-.79-1.43,0-2.75,.34-3.96,1.03-1.22,.69-2.16,1.6-2.83,2.76s-1,2.45-1,3.89c0,2.18,.75,4,2.24,5.45,1.49,1.46,3.38,2.19,5.65,2.19,2.5,0,4.6-.98,6.28-2.94l1.41,1.07c-.89,1.13-2,2.01-3.34,2.63-1.33,.62-2.82,.93-4.47,.93-3.13,0-5.59-1.04-7.4-3.12-1.51-1.76-2.27-3.88-2.27-6.37,0-2.62,.92-4.82,2.75-6.6,1.83-1.79,4.13-2.68,6.89-2.68,1.67,0,3.18,.33,4.52,.99,1.35,.66,2.45,1.59,3.31,2.78Z"/>
        <path class="cls-2" d="M1666.41,243.28c2.71,0,4.97,.9,6.8,2.71,1.82,1.81,2.74,4.03,2.74,6.67s-.91,4.83-2.73,6.66c-1.82,1.82-4.04,2.73-6.66,2.73s-4.89-.91-6.71-2.72c-1.82-1.81-2.73-4.01-2.73-6.58,0-1.72,.42-3.31,1.25-4.78,.83-1.47,1.96-2.61,3.4-3.44,1.44-.83,2.99-1.25,4.66-1.25Zm.08,1.74c-1.32,0-2.58,.34-3.76,1.04-1.18,.69-2.11,1.62-2.77,2.78-.67,1.17-1,2.47-1,3.9,0,2.12,.74,3.92,2.21,5.38s3.25,2.19,5.32,2.19c1.39,0,2.67-.34,3.85-1.01s2.1-1.59,2.76-2.76c.66-1.17,.99-2.46,.99-3.89s-.33-2.7-.99-3.85c-.66-1.15-1.59-2.06-2.79-2.75-1.2-.69-2.48-1.04-3.82-1.04Z"/>
        <path class="cls-2" d="M1679.54,261.6v-17.87h.39l11.89,13.7v-13.7h1.76v17.87h-.4l-11.8-13.53v13.53h-1.85Z"/>
        <path class="cls-2" d="M1696.08,258.27l1.52-.91c1.07,1.97,2.3,2.95,3.71,2.95,.6,0,1.16-.14,1.69-.42s.93-.66,1.2-1.12c.27-.47,.41-.97,.41-1.49,0-.6-.2-1.19-.61-1.76-.56-.79-1.58-1.75-3.06-2.87-1.49-1.12-2.42-1.94-2.78-2.44-.63-.84-.95-1.75-.95-2.73,0-.78,.19-1.49,.56-2.13,.37-.64,.9-1.14,1.57-1.51s1.41-.55,2.21-.55c.84,0,1.63,.21,2.36,.63,.73,.42,1.51,1.19,2.33,2.3l-1.46,1.1c-.67-.89-1.25-1.48-1.72-1.76-.47-.28-.99-.42-1.55-.42-.72,0-1.31,.22-1.77,.66-.46,.44-.69,.98-.69,1.62,0,.39,.08,.77,.24,1.13s.46,.76,.89,1.19c.23,.23,1,.82,2.31,1.79,1.55,1.14,2.61,2.16,3.18,3.05,.58,.89,.86,1.79,.86,2.68,0,1.3-.49,2.42-1.48,3.38-.98,.96-2.18,1.44-3.59,1.44-1.08,0-2.07-.29-2.95-.87-.88-.58-1.7-1.55-2.44-2.91Z"/>
        <path class="cls-2" d="M1708.55,245.48v-1.75h9.79v1.75h-3.98v16.12h-1.82v-16.12h-3.98Z"/>
        <path class="cls-2" d="M1721.01,243.73h3.56c1.98,0,3.33,.08,4.03,.24,1.06,.24,1.92,.77,2.59,1.56s1,1.78,1,2.95c0,.97-.23,1.83-.69,2.57-.46,.74-1.11,1.3-1.96,1.67-.85,.38-2.03,.57-3.52,.58l6.43,8.3h-2.21l-6.43-8.3h-1.01v8.3h-1.79v-17.87Zm1.79,1.75v6.07l3.08,.02c1.19,0,2.07-.11,2.65-.34,.57-.23,1.02-.59,1.34-1.09s.48-1.06,.48-1.67-.16-1.14-.49-1.63c-.32-.49-.75-.84-1.28-1.05-.53-.21-1.4-.31-2.63-.31h-3.15Z"/>
        <path class="cls-2" d="M1736.08,243.73h1.79v10.79c0,1.28,.02,2.08,.07,2.39,.09,.71,.3,1.29,.62,1.77,.32,.47,.82,.87,1.49,1.19,.67,.32,1.35,.48,2.03,.48,.59,0,1.16-.12,1.7-.38,.54-.25,1-.6,1.36-1.04,.36-.44,.63-.98,.8-1.62,.12-.45,.18-1.39,.18-2.79v-10.79h1.79v10.79c0,1.6-.16,2.89-.47,3.87s-.94,1.84-1.87,2.57c-.93,.73-2.07,1.09-3.39,1.09-1.44,0-2.68-.34-3.71-1.03-1.03-.69-1.72-1.6-2.06-2.73-.22-.7-.33-1.95-.33-3.77v-10.79Z"/>
        <path class="cls-2" d="M1752.05,243.73h1.79v17.87h-1.79v-17.87Z"/>
        <path class="cls-2" d="M1757.93,261.6v-17.87h3.71c2.67,0,4.61,.21,5.82,.64,1.73,.61,3.09,1.66,4.06,3.16s1.46,3.28,1.46,5.36c0,1.79-.39,3.37-1.16,4.73s-1.78,2.36-3.01,3.01c-1.23,.65-2.97,.97-5.19,.97h-5.69Zm1.71-1.69h2.07c2.47,0,4.18-.15,5.14-.46,1.35-.44,2.4-1.22,3.17-2.36,.77-1.14,1.15-2.53,1.15-4.17,0-1.73-.42-3.2-1.25-4.42-.83-1.22-2-2.06-3.49-2.51-1.12-.34-2.96-.51-5.53-.51h-1.26v14.43Z"/>
        <path class="cls-2" d="M1783.75,243.73l8.33,17.87h-1.93l-2.81-5.88h-7.7l-2.78,5.88h-1.99l8.44-17.87h.44Zm-.23,3.8l-3.06,6.47h6.11l-3.05-6.47Z"/>
        <path class="cls-2" d="M1796.45,248.04c.41,0,.77,.15,1.06,.44,.29,.29,.44,.65,.44,1.07s-.15,.78-.44,1.07c-.29,.29-.64,.44-1.06,.44s-.77-.15-1.06-.44c-.29-.29-.44-.65-.44-1.07s.15-.77,.44-1.06c.29-.3,.64-.44,1.06-.44Zm0,10.89c.41,0,.77,.15,1.06,.44,.29,.29,.44,.65,.44,1.07s-.15,.77-.44,1.06c-.29,.3-.64,.44-1.06,.44s-.77-.15-1.06-.44c-.29-.29-.44-.65-.44-1.06s.15-.78,.44-1.07c.29-.29,.64-.44,1.06-.44Z"/>
      </g>
      <g>
        <path class="cls-1" d="M1731.43,157.83h19.69v-9.3c-1.17-.39-2.54-.79-3.88-1.28-5.92-2.19-9.11-6.48-9.18-12.77-.1-9.1-.11-18.2,.02-27.3,.1-7.18,4.53-12.49,11.44-13.41,3.57-.48,7.3-.46,10.87,0,6.77,.85,11.41,6.28,11.54,13.39,.17,9.1,.18,18.2,.02,27.3-.12,7.46-3.77,11.15-13.51,14.2v9.42c2.92,0,5.77-.43,8.39,.15,1.84,.41,4.58,1.99,4.81,3.4,.52,3.16-2.39,3.25-4.8,3.25-19.69,0-39.38,0-59.07,0-12.91,0-25.82-.16-38.72,.08-4.68,.09-6.01-1.8-6-6.16,.11-32.1,.07-64.2,.1-96.3,0-6.12,1.63-7.24,7.13-5.1,18.62,7.24,37.2,14.59,55.91,21.6,3.97,1.49,5.17,3.57,5.14,7.66-.18,22.67-.09,45.34-.08,68.01,0,.97,.1,1.93,.17,3.18Zm-20.67-.1c0-3.42-.34-6.58,.16-9.6,.22-1.29,2.2-2.28,3.37-3.41,1.07,1.18,2.87,2.26,3.07,3.58,.46,3.03,.15,6.18,.15,9.4h6.88c0-23.34,.05-46.3-.12-69.27,0-1.26-1.54-3.15-2.8-3.66-14.53-5.87-29.14-11.54-43.76-17.21-2.36-.92-4.82-1.57-7.38-2.4v92.53h6.47c0-3.33-.39-6.36,.16-9.21,.27-1.41,2.27-2.48,3.49-3.7,1.07,1.2,2.85,2.3,3.05,3.63,.46,3.02,.15,6.17,.15,9.34h27.11Zm47.48-16.69c5.02-.69,6.82-3.42,6.85-7.5,.07-8.44,.04-16.87,.03-25.31,0-3.69-1.51-6.76-5.18-7.5-3.16-.63-6.8-.87-9.75,.13-2.16,.73-4.93,3.66-5.05,5.75-.53,9.39-.33,18.83-.14,28.25,.07,3.55,2.27,5.58,6.46,6.05,0-6.52-.23-12.78,.16-19.01,.1-1.54,2.18-2.96,3.35-4.43,1.09,1.53,3.01,3.02,3.11,4.61,.37,6.09,.15,12.22,.15,18.96Z"/>
        <path class="cls-1" d="M1700.3,137.6h-6.33v-6.26h6.33v6.26Z"/>
        <path class="cls-1" d="M1677.06,123.7v-6.05h6.29v6.05h-6.29Z"/>
        <path class="cls-1" d="M1711.01,137.48v-6.23h6.24v6.23h-6.24Z"/>
        <path class="cls-1" d="M1683.31,83.15h-6.22v-6.24h6.22v6.24Z"/>
        <path class="cls-1" d="M1710.9,96.87v-6.21h6.34v6.21h-6.34Z"/>
        <path class="cls-1" d="M1700.41,90.62v6.13h-6.44v-6.13h6.44Z"/>
        <path class="cls-1" d="M1677.09,131.21h6.33v6.3h-6.33v-6.3Z"/>
        <path class="cls-1" d="M1700.17,123.88h-6.14v-6.31c1.92-.09,3.83-.18,6.14-.29v6.59Z"/>
        <path class="cls-1" d="M1683.39,96.9h-6.25c-.1-2.03-.21-4.07-.33-6.38h6.58v6.38Z"/>
        <path class="cls-1" d="M1717.27,117.24v6.6h-6.11v-6.23c1.73-.1,3.6-.22,6.11-.37Z"/>
        <path class="cls-1" d="M1711.18,104.1h6.05v6.16h-6.05v-6.16Z"/>
        <path class="cls-1" d="M1693.79,151.02v-5.91h6.47v5.91h-6.47Z"/>
        <path class="cls-1" d="M1677.02,110.33v-6.09h6.42v6.09h-6.42Z"/>
        <path class="cls-1" d="M1700.35,104.34v5.87h-6.23v-5.87h6.23Z"/>
      </g>
    </g>
  </g>
  <g>
    <g>
      <path class="cls-2" d="M757.07,342.1v-8.01h38.09c1.96,0,3.32-1.38,3.32-3.7s-1.3-3.7-3.32-3.7h-25.72c-6.13,0-9.97-3.04-11.57-6.85-.74-1.68-.8-4-.8-5.5v-11.02h49.06v8.04h-39.61v3.48c0,1.19,.25,2.51,.77,2.98,.55,.55,1.38,.85,2.24,.85h25.72c3.78,0,6.85,1.16,9.17,3.34,2.65,2.46,3.34,5.61,3.34,8.37,0,1.93-.36,4.09-1.49,6.05-1.93,3.29-5.69,5.66-11.02,5.66h-38.17Z"/>
      <path class="cls-2" d="M816.47,342.1v-8.01h38.09c1.96,0,3.31-1.38,3.31-3.7s-1.3-3.7-3.31-3.7h-25.72c-6.13,0-9.97-3.04-11.57-6.85-.75-1.68-.8-4-.8-5.5v-11.02h49.06v8.04h-39.61v3.48c0,1.19,.25,2.51,.77,2.98,.55,.55,1.38,.85,2.24,.85h25.72c3.78,0,6.85,1.16,9.17,3.34,2.65,2.46,3.34,5.61,3.34,8.37,0,1.93-.36,4.09-1.49,6.05-1.93,3.29-5.69,5.66-11.02,5.66h-38.17Z"/>
      <path class="cls-2" d="M875.87,342.1v-8.01h38.09c1.96,0,3.31-1.38,3.31-3.7s-1.3-3.7-3.31-3.7h-25.72c-6.13,0-9.97-3.04-11.57-6.85-.75-1.68-.8-4-.8-5.5v-11.02h49.06v8.04h-39.61v3.48c0,1.19,.25,2.51,.77,2.98,.55,.55,1.38,.85,2.24,.85h25.72c3.78,0,6.85,1.16,9.17,3.34,2.65,2.46,3.34,5.61,3.34,8.37,0,1.93-.36,4.09-1.49,6.05-1.93,3.29-5.69,5.66-11.02,5.66h-38.17Z"/>
    </g>
    <g>
      <path class="cls-2" d="M772.48,207.41h3.56c2.04,0,3.42,.09,4.13,.27,1.02,.25,1.86,.77,2.5,1.55,.65,.78,.97,1.76,.97,2.95s-.32,2.17-.95,2.95c-.63,.77-1.5,1.3-2.61,1.56-.81,.19-2.32,.29-4.54,.29h-1.28v8.31h-1.79v-17.87Zm1.79,1.75v6.06l3.03,.04c1.22,0,2.12-.11,2.68-.34,.57-.22,1.01-.58,1.34-1.08,.32-.5,.49-1.05,.49-1.67s-.16-1.14-.49-1.64c-.32-.5-.75-.85-1.28-1.06-.53-.21-1.4-.32-2.61-.32h-3.16Z"/>
      <path class="cls-2" d="M787.31,207.41h3.56c1.98,0,3.33,.08,4.03,.25,1.06,.24,1.92,.76,2.59,1.56,.66,.8,1,1.78,1,2.95,0,.97-.23,1.83-.69,2.57-.46,.74-1.11,1.3-1.96,1.67-.85,.38-2.02,.57-3.52,.58l6.43,8.3h-2.21l-6.43-8.3h-1.01v8.3h-1.79v-17.87Zm1.79,1.75v6.07l3.08,.03c1.19,0,2.07-.12,2.65-.34,.57-.23,1.02-.59,1.34-1.09s.48-1.05,.48-1.67-.16-1.14-.49-1.63-.75-.84-1.28-1.05c-.53-.21-1.4-.32-2.63-.32h-3.15Z"/>
      <path class="cls-2" d="M810.83,206.97c2.71,0,4.97,.9,6.8,2.71s2.74,4.03,2.74,6.67-.91,4.83-2.73,6.66c-1.82,1.82-4.04,2.73-6.65,2.73s-4.89-.9-6.71-2.72-2.73-4.01-2.73-6.58c0-1.72,.42-3.31,1.25-4.78s1.96-2.61,3.4-3.44,2.99-1.25,4.66-1.25Zm.08,1.74c-1.32,0-2.57,.34-3.76,1.03-1.18,.69-2.11,1.62-2.77,2.79-.66,1.17-1,2.47-1,3.9,0,2.12,.74,3.92,2.21,5.38,1.47,1.46,3.25,2.19,5.32,2.19,1.39,0,2.67-.34,3.85-1.01,1.18-.67,2.1-1.59,2.76-2.76,.66-1.17,.99-2.46,.99-3.89s-.33-2.7-.99-3.85c-.66-1.15-1.59-2.07-2.79-2.76-1.2-.69-2.47-1.03-3.82-1.03Z"/>
      <path class="cls-2" d="M822.53,207.41h2.06l4.57,7.37,4.5-7.37h2.06l-5.66,9.33v8.54h-1.76v-8.54l-5.77-9.33Z"/>
      <path class="cls-2" d="M838.68,207.41h10.24v1.75h-8.46v5.6h8.38v1.75h-8.38v7.02h8.38v1.75h-10.17v-17.87Z"/>
      <path class="cls-2" d="M868.65,210.73l-1.41,1.08c-.78-1.01-1.71-1.78-2.8-2.3-1.09-.52-2.29-.78-3.59-.78-1.43,0-2.75,.34-3.96,1.03s-2.16,1.6-2.83,2.76c-.67,1.15-1,2.45-1,3.89,0,2.18,.75,4,2.24,5.45,1.49,1.46,3.38,2.19,5.66,2.19,2.5,0,4.6-.98,6.28-2.94l1.41,1.07c-.89,1.14-2,2.01-3.34,2.63s-2.82,.93-4.46,.93c-3.13,0-5.59-1.04-7.4-3.12-1.51-1.76-2.27-3.88-2.27-6.37,0-2.62,.92-4.82,2.75-6.6,1.84-1.79,4.13-2.68,6.9-2.68,1.67,0,3.17,.33,4.52,.99,1.35,.66,2.45,1.58,3.3,2.78Z"/>
      <path class="cls-2" d="M870.46,209.16v-1.75h9.79v1.75h-3.98v16.12h-1.82v-16.12h-3.98Z"/>
      <path class="cls-2" d="M891.34,206.97c2.71,0,4.97,.9,6.8,2.71s2.73,4.03,2.73,6.67-.91,4.83-2.73,6.66c-1.82,1.82-4.04,2.73-6.66,2.73s-4.89-.9-6.71-2.72c-1.82-1.82-2.74-4.01-2.74-6.58,0-1.72,.42-3.31,1.25-4.78s1.96-2.61,3.4-3.44c1.44-.83,2.99-1.25,4.66-1.25Zm.08,1.74c-1.32,0-2.58,.34-3.76,1.03-1.18,.69-2.11,1.62-2.77,2.79-.67,1.17-1,2.47-1,3.9,0,2.12,.74,3.92,2.21,5.38,1.47,1.46,3.24,2.19,5.32,2.19,1.39,0,2.67-.34,3.85-1.01,1.18-.67,2.1-1.59,2.76-2.76,.66-1.17,.99-2.46,.99-3.89s-.33-2.7-.99-3.85c-.66-1.15-1.59-2.07-2.79-2.76-1.2-.69-2.48-1.03-3.82-1.03Z"/>
      <path class="cls-2" d="M902.61,221.96l1.52-.91c1.07,1.97,2.3,2.95,3.71,2.95,.6,0,1.16-.14,1.69-.42,.52-.28,.93-.65,1.2-1.12,.28-.47,.41-.97,.41-1.49,0-.6-.2-1.19-.61-1.76-.56-.79-1.58-1.75-3.06-2.87-1.49-1.13-2.42-1.94-2.78-2.44-.63-.84-.95-1.76-.95-2.73,0-.78,.19-1.49,.56-2.13,.37-.64,.9-1.14,1.57-1.51,.68-.37,1.41-.55,2.2-.55,.84,0,1.63,.21,2.36,.63s1.51,1.18,2.33,2.3l-1.46,1.11c-.67-.89-1.25-1.48-1.72-1.76-.47-.28-.99-.42-1.55-.42-.72,0-1.31,.22-1.77,.66-.46,.44-.69,.98-.69,1.61,0,.39,.08,.77,.24,1.13,.16,.36,.46,.76,.89,1.19,.24,.23,1,.82,2.31,1.79,1.55,1.14,2.61,2.16,3.18,3.05s.86,1.79,.86,2.68c0,1.3-.49,2.42-1.48,3.38s-2.18,1.43-3.59,1.43c-1.09,0-2.07-.29-2.95-.87-.88-.58-1.7-1.55-2.44-2.91Z"/>
      <path class="cls-2" d="M771.62,255.14v-17.87h3.71c2.67,0,4.61,.21,5.82,.64,1.73,.61,3.09,1.66,4.06,3.16s1.46,3.28,1.46,5.36c0,1.79-.39,3.37-1.16,4.73-.77,1.36-1.78,2.36-3.01,3.01-1.24,.65-2.97,.97-5.19,.97h-5.69Zm1.71-1.69h2.06c2.47,0,4.19-.15,5.14-.46,1.34-.44,2.4-1.22,3.17-2.36,.77-1.14,1.15-2.53,1.15-4.17,0-1.73-.42-3.2-1.25-4.42-.83-1.22-2-2.06-3.49-2.51-1.12-.34-2.96-.51-5.53-.51h-1.26v14.43Z"/>
      <path class="cls-2" d="M789.88,237.27h1.79v17.87h-1.79v-17.87Z"/>
      <path class="cls-2" d="M793.91,251.82l1.52-.91c1.07,1.97,2.3,2.95,3.71,2.95,.6,0,1.16-.14,1.69-.42,.53-.28,.93-.66,1.2-1.12,.27-.47,.41-.97,.41-1.49,0-.6-.2-1.19-.61-1.76-.56-.79-1.58-1.75-3.06-2.87-1.49-1.12-2.42-1.94-2.78-2.44-.63-.84-.95-1.75-.95-2.73,0-.78,.19-1.49,.56-2.13,.37-.64,.9-1.14,1.57-1.51,.67-.37,1.41-.55,2.21-.55,.84,0,1.63,.21,2.36,.63,.73,.42,1.51,1.19,2.33,2.3l-1.46,1.1c-.67-.89-1.24-1.48-1.72-1.76-.47-.28-.99-.42-1.55-.42-.72,0-1.31,.22-1.77,.66-.46,.44-.69,.98-.69,1.62,0,.39,.08,.77,.24,1.13,.16,.36,.46,.76,.89,1.19,.23,.23,1,.82,2.31,1.79,1.55,1.14,2.61,2.16,3.18,3.05,.57,.89,.86,1.79,.86,2.68,0,1.3-.49,2.42-1.48,3.38-.98,.96-2.18,1.44-3.59,1.44-1.09,0-2.07-.29-2.95-.87-.88-.58-1.7-1.55-2.44-2.91Z"/>
      <path class="cls-2" d="M808.16,237.27h10.24v1.75h-8.45v5.6h8.38v1.75h-8.38v7.02h8.38v1.75h-10.17v-17.87Z"/>
      <path class="cls-2" d="M821.5,255.14v-17.87h.39l11.89,13.7v-13.7h1.76v17.87h-.4l-11.8-13.53v13.53h-1.85Zm10.63-21.75l.85,1.18c-.58,.42-1.08,.71-1.48,.86-.4,.15-.82,.22-1.27,.22-.58,0-1.18-.15-1.8-.45-.53-.26-.86-.41-1.01-.45-.2-.06-.41-.09-.63-.09-.28,0-.55,.05-.81,.15-.26,.1-.63,.33-1.11,.69l-.8-1.24c.74-.79,1.65-1.19,2.73-1.19,.52,0,1.14,.17,1.86,.5,.69,.32,1.23,.49,1.63,.49,.45,0,1.06-.22,1.84-.67Z"/>
      <path class="cls-2" d="M847.2,237.27l8.33,17.87h-1.93l-2.81-5.88h-7.7l-2.78,5.88h-1.99l8.44-17.87h.44Zm-.23,3.8l-3.06,6.47h6.11l-3.05-6.47Z"/>
      <path class="cls-2" d="M858.3,255.14v-17.87h3.7c2.67,0,4.61,.21,5.82,.64,1.73,.61,3.09,1.66,4.06,3.16s1.47,3.28,1.47,5.36c0,1.79-.39,3.37-1.16,4.73s-1.78,2.36-3.01,3.01c-1.24,.65-2.97,.97-5.19,.97h-5.69Zm1.71-1.69h2.07c2.47,0,4.18-.15,5.14-.46,1.35-.44,2.4-1.22,3.17-2.36,.77-1.14,1.16-2.53,1.16-4.17,0-1.73-.42-3.2-1.25-4.42s-2-2.06-3.49-2.51c-1.12-.34-2.96-.51-5.53-.51h-1.26v14.43Z"/>
      <path class="cls-2" d="M885.33,236.82c2.71,0,4.97,.9,6.8,2.71s2.74,4.03,2.74,6.67-.91,4.83-2.73,6.66c-1.82,1.82-4.04,2.73-6.65,2.73s-4.89-.91-6.71-2.72c-1.82-1.81-2.73-4.01-2.73-6.58,0-1.72,.42-3.31,1.25-4.78,.83-1.47,1.96-2.61,3.4-3.44s2.99-1.25,4.66-1.25Zm.08,1.74c-1.32,0-2.57,.34-3.76,1.04-1.18,.69-2.11,1.62-2.77,2.78-.66,1.17-1,2.47-1,3.9,0,2.12,.74,3.92,2.21,5.38,1.47,1.46,3.25,2.19,5.32,2.19,1.39,0,2.67-.34,3.85-1.01s2.1-1.59,2.76-2.76c.66-1.17,.99-2.46,.99-3.89s-.33-2.7-.99-3.85-1.59-2.06-2.79-2.75c-1.2-.69-2.47-1.04-3.82-1.04Z"/>
      <path class="cls-2" d="M896.59,251.82l1.52-.91c1.07,1.97,2.3,2.95,3.71,2.95,.6,0,1.16-.14,1.69-.42s.93-.66,1.2-1.12,.41-.97,.41-1.49c0-.6-.2-1.19-.61-1.76-.56-.79-1.58-1.75-3.06-2.87-1.49-1.12-2.42-1.94-2.78-2.44-.63-.84-.95-1.75-.95-2.73,0-.78,.19-1.49,.56-2.13,.37-.64,.9-1.14,1.57-1.51s1.41-.55,2.21-.55c.84,0,1.63,.21,2.36,.63,.73,.42,1.51,1.19,2.33,2.3l-1.46,1.1c-.67-.89-1.25-1.48-1.72-1.76-.47-.28-.99-.42-1.55-.42-.72,0-1.31,.22-1.77,.66-.46,.44-.69,.98-.69,1.62,0,.39,.08,.77,.24,1.13,.16,.36,.46,.76,.89,1.19,.23,.23,1,.82,2.31,1.79,1.55,1.14,2.61,2.16,3.18,3.05,.58,.89,.86,1.79,.86,2.68,0,1.3-.49,2.42-1.48,3.38-.98,.96-2.18,1.44-3.59,1.44-1.09,0-2.07-.29-2.95-.87-.88-.58-1.7-1.55-2.44-2.91Z"/>
      <path class="cls-2" d="M912.42,241.59c.41,0,.77,.15,1.06,.44,.29,.29,.44,.65,.44,1.07s-.15,.78-.44,1.07c-.29,.29-.64,.44-1.06,.44s-.77-.15-1.06-.44c-.29-.29-.44-.65-.44-1.07s.15-.77,.44-1.06c.29-.3,.64-.44,1.06-.44Zm0,10.89c.41,0,.77,.15,1.06,.44,.29,.29,.44,.65,.44,1.07s-.15,.77-.44,1.06c-.29,.3-.64,.44-1.06,.44s-.77-.15-1.06-.44c-.29-.29-.44-.65-.44-1.06s.15-.78,.44-1.07c.29-.29,.64-.44,1.06-.44Z"/>
    </g>
    <path class="cls-2" d="M773.02,24.13h149.55V184.28h-160.15V34.73c0-5.85,4.75-10.6,10.6-10.6Z"/>
    <path class="cls-1" d="M828.05,102.82c-5.3-2.53-9.8-5.06-14.59-6.74-1.41-.49-4.99,1.06-5.33,2.29-4.46,16.41-8.52,32.92-12.65,49.42-.15,.58,.08,1.26,.24,3.18,20.62-8.98,40.68-17.73,61.75-26.91-4.86-4.07-8.66-7.41-12.63-10.53-2.43-1.91-2.97-3.92-2.04-6.91,1.38-4.41,2.34-8.95,3.31-13.48,.91-4.25,2.27-8.23,.4-12.94-1.76-4.44,.38-8.85,4.54-11.6,9.52-6.29,19.05-12.58,28.75-18.57,5.17-3.19,11.85-1.39,15.42,3.56,3.16,4.37,2.4,11.71-2.48,15.1-9.9,6.88-20.11,13.34-30.4,19.64-2.07,1.26-5.05,1.03-8.32,1.6-1.24,5.23-2.73,10.94-3.85,16.72-.21,1.08,.82,2.74,1.75,3.64,2.26,2.17,4.83,4.01,7.23,6.05,6.09,5.16,5.31,12.06-1.96,15.33-13.26,5.96-26.63,11.67-39.95,17.48-5.45,2.38-10.87,4.85-16.38,7.07-7.54,3.04-13.98-1.79-12.17-9.64,4.02-17.38,8.54-34.65,13.13-51.89,1.23-4.63,7.8-7.54,12.8-5.55,6.89,2.75,13.53,6.14,20.19,9.45,2.88,1.43,2.97,3.55,.82,6.02-5.65,6.49-11.04,13.2-16.87,19.52-1.16,1.25-4.46,2.15-5.66,1.4-2.65-1.63-.97-4.03,.58-5.86,4.57-5.42,9.19-10.8,14.35-16.86Zm29.14-19.82c1.69-.69,2.67-.94,3.48-1.46,9.01-5.8,18.11-11.49,26.88-17.64,1.41-.99,1.34-4.09,1.95-6.22-2.22-.47-5.1-2.08-6.54-1.23-9.51,5.6-18.78,11.62-27.92,17.82-1.2,.81-1.92,3.6-1.52,5.13,.39,1.48,2.49,2.52,3.67,3.6Z"/>
  </g>
  <g>
    <g>
      <path class="cls-2" d="M383.25,342.1v-8.01h38.09c1.96,0,3.31-1.38,3.31-3.7s-1.3-3.7-3.31-3.7h-25.72c-6.13,0-9.97-3.04-11.57-6.85-.75-1.68-.8-4-.8-5.5v-11.02h49.06v8.04h-39.61v3.48c0,1.19,.25,2.51,.77,2.98,.55,.55,1.38,.85,2.24,.85h25.72c3.78,0,6.85,1.16,9.17,3.34,2.65,2.46,3.34,5.61,3.34,8.37,0,1.93-.36,4.09-1.49,6.05-1.93,3.29-5.69,5.66-11.02,5.66h-38.17Z"/>
      <path class="cls-2" d="M442.66,342.1v-8.01h38.09c1.96,0,3.32-1.38,3.32-3.7s-1.3-3.7-3.32-3.7h-25.72c-6.13,0-9.97-3.04-11.57-6.85-.74-1.68-.8-4-.8-5.5v-11.02h49.06v8.04h-39.61v3.48c0,1.19,.25,2.51,.77,2.98,.55,.55,1.38,.85,2.24,.85h25.72c3.78,0,6.85,1.16,9.17,3.34,2.65,2.46,3.34,5.61,3.34,8.37,0,1.93-.36,4.09-1.49,6.05-1.93,3.29-5.69,5.66-11.02,5.66h-38.17Z"/>
      <path class="cls-2" d="M502.06,342.1v-8.01h38.09c1.96,0,3.32-1.38,3.32-3.7s-1.3-3.7-3.32-3.7h-25.72c-6.13,0-9.97-3.04-11.57-6.85-.74-1.68-.8-4-.8-5.5v-11.02h49.06v8.04h-39.61v3.48c0,1.19,.25,2.51,.77,2.98,.55,.55,1.38,.85,2.24,.85h25.72c3.78,0,6.85,1.16,9.17,3.34,2.65,2.46,3.34,5.61,3.34,8.37,0,1.93-.36,4.09-1.49,6.05-1.93,3.29-5.69,5.66-11.02,5.66h-38.17Z"/>
    </g>
    <g>
      <path class="cls-2" d="M438.46,206.97c2.71,0,4.97,.9,6.8,2.71s2.73,4.03,2.73,6.67-.91,4.83-2.73,6.66c-1.82,1.82-4.04,2.73-6.66,2.73s-4.89-.9-6.71-2.72c-1.82-1.82-2.74-4.01-2.74-6.58,0-1.72,.42-3.31,1.25-4.78s1.96-2.61,3.4-3.44c1.44-.83,2.99-1.25,4.66-1.25Zm.08,1.74c-1.32,0-2.58,.34-3.76,1.03-1.18,.69-2.11,1.62-2.77,2.79-.67,1.17-1,2.47-1,3.9,0,2.12,.74,3.92,2.21,5.38,1.47,1.46,3.24,2.19,5.32,2.19,1.39,0,2.67-.34,3.85-1.01,1.18-.67,2.1-1.59,2.76-2.76,.66-1.17,.99-2.46,.99-3.89s-.33-2.7-.99-3.85c-.66-1.15-1.59-2.07-2.79-2.76-1.2-.69-2.48-1.03-3.82-1.03Z"/>
      <path class="cls-2" d="M451.62,207.41h3.52c1.42,0,2.51,.17,3.27,.5,.76,.34,1.36,.85,1.8,1.55s.66,1.47,.66,2.32c0,.79-.19,1.52-.58,2.17s-.96,1.18-1.7,1.59c.93,.31,1.64,.69,2.14,1.11,.5,.42,.89,.94,1.17,1.54,.28,.6,.42,1.26,.42,1.96,0,1.44-.52,2.65-1.57,3.64-1.05,.99-2.46,1.49-4.22,1.49h-4.91v-17.87Zm1.75,1.75v5.72h1.02c1.24,0,2.15-.12,2.74-.35s1.05-.6,1.39-1.09,.51-1.05,.51-1.66c0-.82-.29-1.46-.86-1.92s-1.48-.7-2.73-.7h-2.07Zm0,7.52v6.85h2.22c1.31,0,2.26-.13,2.87-.38s1.1-.66,1.47-1.2c.37-.54,.55-1.13,.55-1.76,0-.79-.26-1.49-.78-2.08-.52-.59-1.23-1-2.14-1.22-.61-.15-1.67-.22-3.18-.22h-1.01Z"/>
      <path class="cls-2" d="M465.96,207.41h3.56c1.98,0,3.33,.08,4.03,.25,1.06,.24,1.92,.76,2.59,1.56,.66,.8,1,1.78,1,2.95,0,.97-.23,1.83-.69,2.57-.46,.74-1.11,1.3-1.96,1.67-.85,.38-2.03,.57-3.52,.58l6.43,8.3h-2.21l-6.43-8.3h-1.01v8.3h-1.79v-17.87Zm1.79,1.75v6.07l3.08,.03c1.19,0,2.07-.12,2.65-.34,.57-.23,1.02-.59,1.34-1.09s.48-1.05,.48-1.67-.16-1.14-.49-1.63c-.32-.49-.75-.84-1.28-1.05-.53-.21-1.4-.32-2.63-.32h-3.15Z"/>
      <path class="cls-2" d="M488.27,207.41l8.33,17.87h-1.93l-2.81-5.88h-7.7l-2.79,5.88h-1.99l8.44-17.87h.44Zm-.23,3.8l-3.06,6.47h6.11l-3.05-6.47Z"/>
      <path class="cls-2" d="M497.52,221.96l1.52-.91c1.07,1.97,2.3,2.95,3.7,2.95,.6,0,1.16-.14,1.69-.42s.93-.65,1.2-1.12c.28-.47,.41-.97,.41-1.49,0-.6-.2-1.19-.61-1.76-.56-.79-1.58-1.75-3.06-2.87-1.49-1.13-2.42-1.94-2.78-2.44-.63-.84-.95-1.76-.95-2.73,0-.78,.19-1.49,.56-2.13,.37-.64,.9-1.14,1.57-1.51,.67-.37,1.41-.55,2.2-.55,.84,0,1.63,.21,2.36,.63,.73,.42,1.51,1.18,2.33,2.3l-1.46,1.11c-.67-.89-1.24-1.48-1.72-1.76-.47-.28-.99-.42-1.55-.42-.72,0-1.31,.22-1.77,.66-.46,.44-.69,.98-.69,1.61,0,.39,.08,.77,.24,1.13,.16,.36,.46,.76,.89,1.19,.24,.23,1.01,.82,2.31,1.79,1.55,1.14,2.61,2.16,3.18,3.05,.57,.89,.86,1.79,.86,2.68,0,1.3-.49,2.42-1.48,3.38s-2.18,1.43-3.59,1.43c-1.09,0-2.07-.29-2.95-.87-.88-.58-1.7-1.55-2.44-2.91Z"/>
      <path class="cls-2" d="M399.27,240.59l-1.41,1.08c-.78-1.01-1.71-1.78-2.8-2.3-1.09-.52-2.29-.79-3.59-.79-1.43,0-2.75,.34-3.96,1.03-1.21,.69-2.16,1.6-2.82,2.76s-1,2.45-1,3.89c0,2.18,.75,4,2.24,5.45,1.49,1.46,3.38,2.19,5.65,2.19,2.5,0,4.6-.98,6.28-2.94l1.41,1.07c-.89,1.13-2,2.01-3.33,2.63-1.33,.62-2.82,.93-4.47,.93-3.13,0-5.59-1.04-7.4-3.12-1.51-1.76-2.27-3.88-2.27-6.37,0-2.62,.92-4.82,2.75-6.6,1.83-1.79,4.13-2.68,6.89-2.68,1.67,0,3.18,.33,4.52,.99,1.35,.66,2.45,1.59,3.3,2.78Z"/>
      <path class="cls-2" d="M411.36,236.82c2.71,0,4.97,.9,6.8,2.71s2.73,4.03,2.73,6.67-.91,4.83-2.73,6.66c-1.82,1.82-4.04,2.73-6.66,2.73s-4.89-.91-6.71-2.72c-1.82-1.81-2.74-4.01-2.74-6.58,0-1.72,.42-3.31,1.25-4.78,.83-1.47,1.96-2.61,3.4-3.44,1.44-.83,2.99-1.25,4.66-1.25Zm.08,1.74c-1.32,0-2.58,.34-3.76,1.04-1.18,.69-2.11,1.62-2.77,2.78-.67,1.17-1,2.47-1,3.9,0,2.12,.74,3.92,2.21,5.38,1.47,1.46,3.24,2.19,5.32,2.19,1.39,0,2.67-.34,3.85-1.01s2.1-1.59,2.76-2.76c.66-1.17,.99-2.46,.99-3.89s-.33-2.7-.99-3.85c-.66-1.15-1.59-2.06-2.79-2.75-1.2-.69-2.48-1.04-3.82-1.04Z"/>
      <path class="cls-2" d="M424.49,255.14v-17.87h.39l11.89,13.7v-13.7h1.76v17.87h-.4l-11.8-13.53v13.53h-1.85Z"/>
      <path class="cls-2" d="M441.04,251.82l1.52-.91c1.07,1.97,2.3,2.95,3.71,2.95,.6,0,1.16-.14,1.69-.42,.53-.28,.93-.66,1.2-1.12,.27-.47,.41-.97,.41-1.49,0-.6-.2-1.19-.61-1.76-.56-.79-1.58-1.75-3.06-2.87-1.49-1.12-2.42-1.94-2.78-2.44-.63-.84-.95-1.75-.95-2.73,0-.78,.19-1.49,.56-2.13,.37-.64,.9-1.14,1.57-1.51,.67-.37,1.41-.55,2.21-.55,.84,0,1.63,.21,2.36,.63,.73,.42,1.51,1.19,2.33,2.3l-1.46,1.1c-.67-.89-1.24-1.48-1.72-1.76-.47-.28-.99-.42-1.55-.42-.72,0-1.31,.22-1.77,.66-.46,.44-.69,.98-.69,1.62,0,.39,.08,.77,.24,1.13,.16,.36,.46,.76,.89,1.19,.23,.23,1,.82,2.31,1.79,1.55,1.14,2.61,2.16,3.18,3.05,.57,.89,.86,1.79,.86,2.68,0,1.3-.49,2.42-1.48,3.38-.98,.96-2.18,1.44-3.59,1.44-1.09,0-2.07-.29-2.95-.87-.88-.58-1.7-1.55-2.44-2.91Z"/>
      <path class="cls-2" d="M453.5,239.02v-1.75h9.79v1.75h-3.98v16.12h-1.82v-16.12h-3.98Z"/>
      <path class="cls-2" d="M465.97,237.27h3.56c1.98,0,3.33,.08,4.03,.24,1.06,.24,1.92,.77,2.59,1.56s1,1.78,1,2.95c0,.97-.23,1.83-.69,2.57s-1.11,1.3-1.96,1.67c-.85,.38-2.03,.57-3.52,.58l6.43,8.3h-2.21l-6.43-8.3h-1.01v8.3h-1.79v-17.87Zm1.79,1.75v6.07l3.08,.02c1.19,0,2.07-.11,2.65-.34,.57-.23,1.02-.59,1.34-1.09s.48-1.06,.48-1.67-.16-1.14-.49-1.63c-.32-.49-.75-.84-1.28-1.05-.53-.21-1.4-.31-2.63-.31h-3.15Z"/>
      <path class="cls-2" d="M481.03,237.27h1.79v10.79c0,1.28,.02,2.08,.07,2.39,.09,.71,.3,1.29,.62,1.77,.32,.47,.82,.87,1.49,1.19,.67,.32,1.35,.48,2.03,.48,.59,0,1.16-.12,1.7-.38,.54-.25,1-.6,1.36-1.04,.36-.44,.63-.98,.8-1.62,.12-.45,.18-1.39,.18-2.79v-10.79h1.79v10.79c0,1.6-.16,2.89-.47,3.87-.31,.98-.94,1.84-1.87,2.57-.94,.73-2.07,1.09-3.4,1.09-1.44,0-2.68-.34-3.71-1.03s-1.72-1.6-2.07-2.73c-.22-.7-.33-1.95-.33-3.77v-10.79Z"/>
      <path class="cls-2" d="M497.01,237.27h1.79v17.87h-1.79v-17.87Z"/>
      <path class="cls-2" d="M502.89,255.14v-17.87h3.71c2.67,0,4.61,.21,5.82,.64,1.73,.61,3.09,1.66,4.06,3.16s1.46,3.28,1.46,5.36c0,1.79-.39,3.37-1.16,4.73-.77,1.36-1.78,2.36-3.01,3.01-1.24,.65-2.97,.97-5.19,.97h-5.69Zm1.71-1.69h2.06c2.47,0,4.19-.15,5.14-.46,1.34-.44,2.4-1.22,3.17-2.36,.77-1.14,1.15-2.53,1.15-4.17,0-1.73-.42-3.2-1.25-4.42-.83-1.22-2-2.06-3.49-2.51-1.12-.34-2.96-.51-5.53-.51h-1.26v14.43Z"/>
      <path class="cls-2" d="M528.7,237.27l8.33,17.87h-1.93l-2.81-5.88h-7.7l-2.78,5.88h-1.99l8.44-17.87h.44Zm-.23,3.8l-3.06,6.47h6.11l-3.05-6.47Z"/>
      <path class="cls-2" d="M537.96,251.82l1.52-.91c1.07,1.97,2.3,2.95,3.71,2.95,.6,0,1.16-.14,1.69-.42,.53-.28,.93-.66,1.2-1.12,.27-.47,.41-.97,.41-1.49,0-.6-.2-1.19-.61-1.76-.56-.79-1.58-1.75-3.06-2.87-1.49-1.12-2.42-1.94-2.78-2.44-.63-.84-.95-1.75-.95-2.73,0-.78,.19-1.49,.56-2.13,.37-.64,.9-1.14,1.57-1.51,.67-.37,1.41-.55,2.21-.55,.84,0,1.63,.21,2.36,.63,.73,.42,1.51,1.19,2.33,2.3l-1.46,1.1c-.67-.89-1.24-1.48-1.72-1.76-.47-.28-.99-.42-1.55-.42-.72,0-1.31,.22-1.77,.66-.46,.44-.69,.98-.69,1.62,0,.39,.08,.77,.24,1.13,.16,.36,.46,.76,.89,1.19,.23,.23,1,.82,2.31,1.79,1.55,1.14,2.61,2.16,3.18,3.05,.57,.89,.86,1.79,.86,2.68,0,1.3-.49,2.42-1.48,3.38-.98,.96-2.18,1.44-3.59,1.44-1.09,0-2.07-.29-2.95-.87-.88-.58-1.7-1.55-2.44-2.91Z"/>
      <path class="cls-2" d="M553.79,241.59c.41,0,.77,.15,1.06,.44,.29,.29,.44,.65,.44,1.07s-.15,.78-.44,1.07c-.29,.29-.64,.44-1.06,.44s-.77-.15-1.06-.44c-.29-.29-.44-.65-.44-1.07s.15-.77,.44-1.06c.29-.3,.64-.44,1.06-.44Zm0,10.89c.41,0,.77,.15,1.06,.44,.29,.29,.44,.65,.44,1.07s-.15,.77-.44,1.06c-.29,.3-.64,.44-1.06,.44s-.77-.15-1.06-.44c-.29-.29-.44-.65-.44-1.06s.15-.78,.44-1.07c.29-.29,.64-.44,1.06-.44Z"/>
    </g>
    <path class="cls-2" d="M399.2,24.13h149.55V184.28h-160.15V34.73c0-5.85,4.75-10.6,10.6-10.6Z"/>
    <g>
      <path class="cls-1" d="M424.32,117.88c7.42,0,14.81,0,22.21,0,1.32,0,2.79-.35,3.94,.11,1.48,.59,2.69,1.84,4.02,2.8-1.25,1.22-2.44,3.41-3.77,3.5-6.26,.43-12.57,.28-18.86,.33-2.44,.02-4.88,0-7.72,0v27.01h23.56c0-4.19-.32-8.3,.16-12.32,.19-1.58,2.14-2.94,3.29-4.41,1.14,1.47,3.07,2.85,3.26,4.44,.48,3.89,.16,7.88,.16,12.16h33.95c0-3.96,.01-7.87,0-11.78,0-2.5,.3-4.8,3.56-4.79,3.43,0,3.31,2.54,3.32,4.92,.01,3.78,0,7.56,0,11.74h23.84c0-4.57,0-9.13,0-13.69-.03-17.22-.08-34.43-.1-51.65,0-2.63-.38-6.08,3.5-5.53,1.33,.19,3.12,3.54,3.14,5.47,.23,22.18,.09,44.36,.23,66.53,.03,4.6-1.89,5.97-6.3,5.96-31.77-.12-63.54-.06-95.31-.07-6.82,0-7.22-.44-7.22-7.36,0-31.6,0-63.2,0-94.8,0-6.26,.46-6.75,6.76-6.76,21.69-.01,43.38-.02,65.07,0,6.01,0,6.35,.37,6.36,6.59,.02,7.77,0,15.55,0,24.13,2.58,0,4.98-.02,7.38,0,2.6,.02,6.02-.6,6.04,3.22,.02,4.02-3.46,3.62-6.29,3.6-2.14-.01-4.28,0-6.77,0v30.53c2.85,0,5.84-.4,8.65,.15,1.68,.33,3.05,2.16,4.57,3.32-1.41,1.11-2.79,3.14-4.22,3.17-11.91,.25-23.84,.25-35.75-.02-1.43-.03-2.82-2.07-4.24-3.18,1.51-1.13,2.98-3.14,4.55-3.24,6.22-.38,12.49-.16,18.98-.16V56.94h-23.28v23.49c3,0,6.12-.35,9.1,.14,1.54,.26,2.84,2.01,4.24,3.09-1.31,1.18-2.53,3.22-3.96,3.39-4.08,.47-8.26,.21-12.4,.19-3.34-.02-4.1-2.24-4.11-5.01-.02-6.62,0-13.24,0-19.87,0-1.78,0-3.55,0-5.55h-33.54v61.06Z"/>
      <path class="cls-1" d="M437.39,90.78v6.21h-6.36v-6.21h6.36Z"/>
      <path class="cls-1" d="M431.07,110.57v-6.13h6.23v6.13h-6.23Z"/>
      <path class="cls-1" d="M450.92,104.47v6.11h-6.14v-6.11h6.14Z"/>
    </g>
  </g>
  <path class="cls-2" d="M2976.8,111.29v160.15h-497.57V127.39c0-8.88,7.2-16.1,16.08-16.1h481.49Z"/>
  <g>
    <path class="cls-2" d="M2077.46,331.14c1.28-1.99,1.76-4.15,1.76-6.3,0-2.73-.82-5.62-3.25-8-2.35-2.26-5.47-3.45-9.34-3.45h-19.74c-3.83,0-6.99,1.18-9.29,3.45-2.46,2.38-3.26,5.27-3.26,8,0,2.13,.5,4.31,1.76,6.3-3.61,2.54-4.66,6.15-4.66,9.39,0,2.76,.74,5.77,3.31,8.26,2.35,2.23,5.5,3.37,9.34,3.37h25.38c3.86,0,6.99-1.11,9.32-3.4,2.6-2.46,3.33-5.47,3.33-8.23,0-3.2-1.06-6.85-4.65-9.39Zm-30.54-9.75h19.71c2.05,0,3.34,1.38,3.34,3.84,0,2.63-1.15,3.48-4.57,3.48h-17.27c-3.45,0-4.56-.84-4.56-3.48,0-2.46,1.31-3.84,3.34-3.84Zm22.51,22.78h-25.32c-2.05,0-3.43-1.43-3.43-3.75s1.34-3.74,3.43-3.74h25.32c2.13,0,3.42,1.34,3.42,3.74s-1.37,3.75-3.42,3.75Z"/>
    <path class="cls-2" d="M2108.83,331.5h-6.17l-13.18,20.65h5.71l2.46-3.84h16.19l2.46,3.84h5.71l-13.18-20.65Zm-8.43,12.48l5.21-8.17h.29l5.18,8.17h-10.68Z"/>
    <polygon class="cls-2" points="2147.98 345.84 2130.31 331.5 2125.93 331.5 2125.93 352.15 2130.95 352.15 2130.95 338 2148.63 352.15 2153 352.15 2153 331.5 2147.98 331.5 2147.98 345.84"/>
    <path class="cls-2" d="M2137.74,329.05c.01-.09,.03-.15,.03-.19,.06,.01,.12,.04,.16,.07,.12,.06,.22,.12,.32,.16,.46,.25,1.19,.65,2.27,.65,1.62,0,2.46-1.06,2.87-1.75,.44-.78,.68-1.65,.79-2.1l.24-.99h-3.07l-.18,.69c-.01,.07-.03,.13-.03,.19h-.01c-.06-.04-.13-.07-.22-.12-.1-.04-.19-.09-.29-.15-.22-.12-.53-.27-.88-.4-.37-.12-.79-.22-1.31-.22-1.63,0-2.5,1.01-2.91,1.72-.46,.76-.66,1.65-.78,2.13l-.21,.99h3.05l.18-.69Z"/>
    <path class="cls-2" d="M2186.21,336.53c-1.7-2.98-4.95-5.03-9.61-5.03h-8.02c-4.65,0-7.9,2.03-9.6,4.98-.99,1.67-1.32,3.49-1.32,5.25s.29,3.66,1.32,5.42c1.7,2.93,4.97,5,9.6,5h8.02c4.62,0,7.91-2.05,9.6-5,.99-1.67,1.31-3.52,1.31-5.28s-.32-3.64-1.29-5.35Zm-5.41,9.73c-1.11,1.06-2.46,1.56-4.24,1.56h-7.96c-1.78,0-3.13-.5-4.24-1.55-1.23-1.17-1.7-2.76-1.7-4.39v-.12c0-1.64,.47-3.22,1.7-4.4,1.11-1.05,2.46-1.55,4.24-1.55h7.96c1.78,0,3.11,.5,4.22,1.55,1.26,1.18,1.72,2.79,1.72,4.43s-.46,3.27-1.7,4.46Z"/>
    <path class="cls-2" d="M2216.74,341.46c-1.22-1.18-2.91-1.79-4.93-1.79h-13.65c-1.03,0-1.72-.71-1.72-1.94s.71-1.9,1.72-1.9h19.52v-4.33h-19.57c-2.03,0-3.68,.63-4.91,1.82-1.38,1.31-1.78,2.99-1.78,4.46s.4,3.1,1.78,4.41c1.24,1.16,2.88,1.79,4.91,1.79h13.65c1.04,0,1.72,.71,1.72,1.93s-.69,1.91-1.72,1.91h-19.51v4.33h19.55c2.03,0,3.72-.63,4.94-1.82,1.35-1.32,1.75-3,1.75-4.46s-.38-3.1-1.77-4.41Z"/>
    <g>
      <path class="cls-2" d="M2047.07,243.72h10.24v1.75h-8.46v5.6h8.38v1.75h-8.38v7.02h8.38v1.75h-10.17v-17.87Z"/>
      <path class="cls-2" d="M2059.46,243.72h2.09l4.28,6.96,4.3-6.96h2.06l-5.33,8.63,5.68,9.24h-2.09l-4.64-7.54-4.66,7.54h-2.09l5.71-9.22-5.32-8.65Z"/>
      <path class="cls-2" d="M2075.53,243.72h3.56c2.04,0,3.42,.09,4.13,.27,1.02,.25,1.85,.77,2.5,1.55,.65,.78,.97,1.76,.97,2.95s-.32,2.17-.95,2.95-1.5,1.29-2.61,1.56c-.81,.2-2.32,.29-4.54,.29h-1.28v8.31h-1.79v-17.87Zm1.79,1.75v6.06l3.03,.04c1.22,0,2.12-.11,2.69-.33,.57-.22,1.01-.58,1.34-1.08,.32-.5,.49-1.05,.49-1.67s-.16-1.15-.49-1.64c-.32-.5-.75-.85-1.28-1.06-.53-.21-1.4-.31-2.61-.31h-3.16Z"/>
      <path class="cls-2" d="M2090.28,243.72h10.24v1.75h-8.46v5.6h8.38v1.75h-8.38v7.02h8.38v1.75h-10.17v-17.87Z"/>
      <path class="cls-2" d="M2103.71,243.72h3.56c1.98,0,3.33,.08,4.03,.24,1.06,.24,1.92,.77,2.59,1.56s1,1.78,1,2.95c0,.97-.23,1.83-.69,2.57-.46,.74-1.11,1.3-1.96,1.67-.85,.38-2.03,.57-3.52,.58l6.43,8.3h-2.21l-6.43-8.3h-1.01v8.3h-1.79v-17.87Zm1.79,1.75v6.07l3.08,.02c1.19,0,2.07-.11,2.65-.34,.57-.23,1.02-.59,1.34-1.09s.48-1.06,.48-1.67-.16-1.14-.49-1.63c-.32-.49-.75-.84-1.28-1.05-.53-.21-1.4-.31-2.63-.31h-3.15Z"/>
      <path class="cls-2" d="M2118.46,243.72h1.79v17.87h-1.79v-17.87Z"/>
      <path class="cls-2" d="M2124.35,243.72h10.24v1.75h-8.46v5.6h8.38v1.75h-8.38v7.02h8.38v1.75h-10.17v-17.87Z"/>
      <path class="cls-2" d="M2137.69,261.59v-17.87h.39l11.89,13.7v-13.7h1.76v17.87h-.4l-11.8-13.53v13.53h-1.85Z"/>
      <path class="cls-2" d="M2172.73,247.04l-1.41,1.08c-.78-1.01-1.71-1.78-2.8-2.3-1.09-.52-2.29-.79-3.59-.79-1.43,0-2.75,.34-3.96,1.03-1.22,.69-2.16,1.6-2.83,2.76s-1,2.45-1,3.89c0,2.18,.75,4,2.24,5.45,1.49,1.46,3.38,2.19,5.65,2.19,2.5,0,4.6-.98,6.28-2.94l1.41,1.07c-.89,1.13-2,2.01-3.34,2.63-1.33,.62-2.82,.93-4.47,.93-3.13,0-5.59-1.04-7.4-3.12-1.51-1.76-2.27-3.88-2.27-6.37,0-2.62,.92-4.82,2.75-6.6,1.83-1.79,4.13-2.68,6.89-2.68,1.67,0,3.18,.33,4.52,.99,1.35,.66,2.45,1.59,3.31,2.78Z"/>
      <path class="cls-2" d="M2176.06,243.72h1.79v17.87h-1.79v-17.87Z"/>
      <path class="cls-2" d="M2189.24,243.72l8.33,17.87h-1.93l-2.81-5.88h-7.7l-2.78,5.88h-1.99l8.44-17.87h.44Zm-.23,3.8l-3.06,6.47h6.11l-3.05-6.47Z"/>
      <path class="cls-2" d="M2201.94,248.04c.41,0,.77,.15,1.06,.44,.29,.29,.44,.65,.44,1.07s-.15,.78-.44,1.07c-.29,.29-.64,.44-1.06,.44s-.77-.15-1.06-.44c-.29-.29-.44-.65-.44-1.07s.15-.77,.44-1.06c.29-.3,.64-.44,1.06-.44Zm0,10.89c.41,0,.77,.15,1.06,.44,.29,.29,.44,.65,.44,1.07s-.15,.77-.44,1.06c-.29,.3-.64,.44-1.06,.44s-.77-.15-1.06-.44c-.29-.29-.44-.65-.44-1.06s.15-.78,.44-1.07c.29-.29,.64-.44,1.06-.44Z"/>
    </g>
    <path class="cls-2" d="M2055.49,30.58h149.55V190.73h-160.15V41.18c0-5.85,4.75-10.6,10.6-10.6Z"/>
    <g>
      <path class="cls-1" d="M2086.54,129.11h11.06c0-2.32-.35-4.49,.12-6.47,.31-1.28,1.99-3.32,2.73-3.19,1.39,.24,3.2,1.59,3.66,2.89,.69,1.93,.35,4.22,.47,6.76h16.68c0-5,.03-10.05-.01-15.1-.02-2.5,.34-5.27,3.31-4.84,1.39,.2,3.25,3.02,3.42,4.79,.47,4.89,.16,9.85,.16,15.08h16.99c0-2.05-.39-4.23,.13-6.16,.37-1.39,1.96-2.44,3.01-3.65,1.16,1.11,2.89,2.02,3.34,3.37,.63,1.93,.33,4.17,.43,6.5h9.9c.41-9.18,0-17.98-2.74-26.6-1.06-3.34-3.44-4-6.56-3.88-5.86,.22-10.83-1.93-14.02-6.85-.93-1.43-.15-3.97-.15-6.01,1.81,.54,4.31,.51,5.29,1.72,2.71,3.34,6.02,4.56,10.02,4.29,5.79-.39,9.44,2.31,11.43,7.53,4.11,10.78,4.15,21.99,3.28,33.26-.32,4.19-3.65,3.57-6.39,3.57-22.14,.03-44.28,.02-66.42,.02-3.47,0-7,.36-10.4-.16-1.65-.25-4.38-2.21-4.34-3.32,.32-10.03,.35-20.18,2.08-30.01,1.54-8.74,4.9-10.14,13.85-11.08,2.95-.31,5.98-2.29,8.4-4.23,1.97-1.58,3.84-3.52,5.72-1.26,.93,1.12,.5,4.41-.52,5.9-3.18,4.65-7.97,7-13.64,6.62-4.34-.29-6.68,1.64-7.24,5.62-1.14,8.1-2.02,16.23-3.08,24.9Z"/>
      <path class="cls-1" d="M2150.58,107.71c-1.05-1.46-2.03-3.23-2.28-4.97-.23-1.69-.52-3.22-.88-4.65-1.53-6.14-4.28-9.95-8.93-12.26-1.59-.82-3.4-1.44-5.45-1.94-2.16-.53-4.02-2.23-6.15-3.07-1.23-.47-3.6-.84-3.92-.3-2.26,3.64-6.32,2.78-9.38,4.24-.84,.39-1.75,.8-2.64,1.23-2.22,1.08-4.39,2.32-5.32,4.12-1.34,2.6-2.52,5.28-3.6,8.02-1.56,3.96-2.89,8.05-4.08,12.12-.3,1.03,3.2,3.2,5.1,4.97,2.07,4.53,3.83,9.34,6.06,13.9,.88,1.82,1.85,3.6,2.93,5.3,.39,.62,.83,1.21,1.32,1.75,5.09,5.92,13.96,6.51,20.53,1.61,.68-.52,1.34-1.05,1.93-1.61,2.26-2.08,3.99-4.48,5.32-7.11,1.66-3.31,2.66-7,3.23-10.84,.39-2.67,.76-4.51,4.27-4.71,3.25-.18,3.89-3.08,1.94-5.79Zm-18.75,22.45c-3.66,5.45-10.05,5.24-14.31,.2-.35-.41-.67-.82-.99-1.25-3.19-4.27-4.8-9.19-5.03-14.97h25.82c.53,.41,1.06,.84,1.58,1.25-2.13,4.56-3.78,9.42-6.38,13.67-.23,.38-.46,.74-.7,1.11Zm9.26-23.4h-32.88c-1.2-10.4,3.28-16.11,12.79-15.96,.11,1.87-.17,3.92,.44,5.65,.49,1.41,2.02,2.48,3.1,3.69,1.18-1.12,2.89-2.05,3.4-3.43,.65-1.75,.32-3.86,.43-6.14,9.81,.65,13.55,5.53,12.73,16.19Z"/>
    </g>
  </g>
  <g>
    <path class="cls-2" d="M1192.15,24.13h149.55V184.28h-160.15V34.73c0-5.85,4.75-10.6,10.6-10.6Z"/>
    <g>
      <path class="cls-2" d="M1176.2,342.1v-8.01h38.09c1.96,0,3.31-1.38,3.31-3.7s-1.3-3.7-3.31-3.7h-25.72c-6.13,0-9.97-3.04-11.57-6.85-.74-1.68-.8-4-.8-5.5v-11.02h49.06v8.04h-39.61v3.48c0,1.19,.25,2.51,.77,2.98,.55,.55,1.38,.85,2.24,.85h25.72c3.78,0,6.85,1.16,9.17,3.34,2.65,2.46,3.34,5.61,3.34,8.37,0,1.93-.36,4.09-1.49,6.05-1.93,3.29-5.69,5.66-11.02,5.66h-38.17Z"/>
      <path class="cls-2" d="M1235.61,342.1v-8.01h38.09c1.96,0,3.31-1.38,3.31-3.7s-1.3-3.7-3.31-3.7h-25.72c-6.13,0-9.97-3.04-11.57-6.85-.75-1.68-.8-4-.8-5.5v-11.02h49.06v8.04h-39.61v3.48c0,1.19,.25,2.51,.77,2.98,.55,.55,1.38,.85,2.24,.85h25.72c3.78,0,6.85,1.16,9.17,3.34,2.65,2.46,3.34,5.61,3.34,8.37,0,1.93-.36,4.09-1.49,6.05-1.93,3.29-5.69,5.66-11.02,5.66h-38.17Z"/>
      <path class="cls-2" d="M1295.01,342.1v-8.01h38.09c1.96,0,3.31-1.38,3.31-3.7s-1.3-3.7-3.31-3.7h-25.72c-6.13,0-9.97-3.04-11.57-6.85-.75-1.68-.8-4-.8-5.5v-11.02h49.06v8.04h-39.61v3.48c0,1.19,.25,2.51,.77,2.98,.55,.55,1.38,.85,2.24,.85h25.72c3.78,0,6.85,1.16,9.17,3.34,2.65,2.46,3.34,5.61,3.34,8.37,0,1.93-.36,4.09-1.49,6.05-1.93,3.29-5.69,5.66-11.02,5.66h-38.17Z"/>
    </g>
    <g>
      <path class="cls-2" d="M1191.61,207.41h3.56c2.04,0,3.42,.09,4.13,.27,1.02,.25,1.85,.77,2.5,1.55,.65,.78,.97,1.76,.97,2.95s-.32,2.17-.95,2.95c-.63,.77-1.5,1.3-2.61,1.56-.81,.19-2.33,.29-4.54,.29h-1.28v8.31h-1.79v-17.87Zm1.79,1.75v6.06l3.03,.04c1.22,0,2.12-.11,2.68-.34s1.01-.58,1.34-1.08c.32-.5,.48-1.05,.48-1.67s-.16-1.14-.48-1.64c-.32-.5-.75-.85-1.28-1.06-.53-.21-1.4-.32-2.61-.32h-3.16Z"/>
      <path class="cls-2" d="M1206.45,207.41h3.56c1.98,0,3.33,.08,4.03,.25,1.06,.24,1.92,.76,2.59,1.56,.66,.8,1,1.78,1,2.95,0,.97-.23,1.83-.69,2.57-.46,.74-1.11,1.3-1.96,1.67-.85,.38-2.03,.57-3.52,.58l6.43,8.3h-2.21l-6.43-8.3h-1.01v8.3h-1.79v-17.87Zm1.79,1.75v6.07l3.08,.03c1.19,0,2.08-.12,2.65-.34,.57-.23,1.02-.59,1.34-1.09s.48-1.05,.48-1.67-.16-1.14-.49-1.63c-.32-.49-.75-.84-1.28-1.05s-1.4-.32-2.63-.32h-3.15Z"/>
      <path class="cls-2" d="M1229.96,206.97c2.71,0,4.97,.9,6.8,2.71s2.73,4.03,2.73,6.67-.91,4.83-2.73,6.66c-1.82,1.82-4.04,2.73-6.66,2.73s-4.89-.9-6.71-2.72c-1.82-1.82-2.74-4.01-2.74-6.58,0-1.72,.42-3.31,1.25-4.78s1.96-2.61,3.4-3.44c1.44-.83,2.99-1.25,4.66-1.25Zm.08,1.74c-1.32,0-2.58,.34-3.76,1.03-1.18,.69-2.11,1.62-2.77,2.79-.67,1.17-1,2.47-1,3.9,0,2.12,.74,3.92,2.21,5.38,1.47,1.46,3.24,2.19,5.32,2.19,1.39,0,2.67-.34,3.85-1.01,1.18-.67,2.1-1.59,2.76-2.76,.66-1.17,.99-2.46,.99-3.89s-.33-2.7-.99-3.85c-.66-1.15-1.59-2.07-2.79-2.76-1.2-.69-2.48-1.03-3.82-1.03Z"/>
      <path class="cls-2" d="M1241.67,207.41h2.05l4.57,7.37,4.5-7.37h2.07l-5.66,9.33v8.54h-1.76v-8.54l-5.77-9.33Z"/>
      <path class="cls-2" d="M1257.81,207.41h10.24v1.75h-8.45v5.6h8.38v1.75h-8.38v7.02h8.38v1.75h-10.17v-17.87Z"/>
      <path class="cls-2" d="M1287.79,210.73l-1.41,1.08c-.78-1.01-1.71-1.78-2.8-2.3-1.09-.52-2.29-.78-3.59-.78-1.42,0-2.74,.34-3.96,1.03-1.21,.69-2.16,1.6-2.82,2.76-.67,1.15-1,2.45-1,3.89,0,2.18,.75,4,2.24,5.45,1.49,1.46,3.38,2.19,5.65,2.19,2.5,0,4.6-.98,6.28-2.94l1.41,1.07c-.89,1.14-2,2.01-3.33,2.63-1.33,.62-2.82,.93-4.47,.93-3.13,0-5.59-1.04-7.4-3.12-1.52-1.76-2.27-3.88-2.27-6.37,0-2.62,.92-4.82,2.75-6.6,1.83-1.79,4.13-2.68,6.89-2.68,1.67,0,3.18,.33,4.52,.99,1.34,.66,2.45,1.58,3.3,2.78Z"/>
      <path class="cls-2" d="M1289.6,209.16v-1.75h9.79v1.75h-3.99v16.12h-1.82v-16.12h-3.98Z"/>
      <path class="cls-2" d="M1310.47,206.97c2.71,0,4.97,.9,6.8,2.71s2.74,4.03,2.74,6.67-.91,4.83-2.73,6.66c-1.82,1.82-4.04,2.73-6.65,2.73s-4.89-.9-6.71-2.72c-1.82-1.82-2.73-4.01-2.73-6.58,0-1.72,.42-3.31,1.25-4.78s1.96-2.61,3.4-3.44,2.99-1.25,4.66-1.25Zm.08,1.74c-1.32,0-2.57,.34-3.76,1.03-1.18,.69-2.11,1.62-2.77,2.79-.66,1.17-1,2.47-1,3.9,0,2.12,.74,3.92,2.21,5.38,1.47,1.46,3.25,2.19,5.32,2.19,1.39,0,2.67-.34,3.85-1.01,1.18-.67,2.1-1.59,2.76-2.76,.66-1.17,.99-2.46,.99-3.89s-.33-2.7-.99-3.85c-.66-1.15-1.59-2.07-2.79-2.76-1.2-.69-2.47-1.03-3.82-1.03Z"/>
      <path class="cls-2" d="M1321.74,221.96l1.52-.91c1.07,1.97,2.3,2.95,3.71,2.95,.6,0,1.16-.14,1.69-.42,.53-.28,.93-.65,1.2-1.12,.27-.47,.41-.97,.41-1.49,0-.6-.2-1.19-.61-1.76-.56-.79-1.58-1.75-3.06-2.87-1.49-1.13-2.42-1.94-2.78-2.44-.63-.84-.95-1.76-.95-2.73,0-.78,.19-1.49,.56-2.13,.37-.64,.9-1.14,1.57-1.51,.67-.37,1.41-.55,2.21-.55,.84,0,1.63,.21,2.36,.63,.73,.42,1.51,1.18,2.33,2.3l-1.46,1.11c-.67-.89-1.24-1.48-1.72-1.76-.47-.28-.99-.42-1.55-.42-.72,0-1.31,.22-1.77,.66-.46,.44-.69,.98-.69,1.61,0,.39,.08,.77,.24,1.13,.16,.36,.46,.76,.89,1.19,.23,.23,1,.82,2.31,1.79,1.55,1.14,2.61,2.16,3.18,3.05,.57,.89,.86,1.79,.86,2.68,0,1.3-.49,2.42-1.48,3.38-.98,.96-2.18,1.43-3.59,1.43-1.09,0-2.07-.29-2.95-.87-.88-.58-1.7-1.55-2.44-2.91Z"/>
      <path class="cls-2" d="M1182.01,237.27h10.24v1.75h-8.46v5.6h8.38v1.75h-8.38v7.02h8.38v1.75h-10.17v-17.87Z"/>
      <path class="cls-2" d="M1201.19,237.27h1.79v12.06c0,1.86-.14,3.15-.43,3.87s-.77,1.31-1.44,1.74c-.67,.43-1.49,.65-2.44,.65-.72,0-1.43-.14-2.13-.42-.7-.28-1.48-.77-2.33-1.47l.95-1.42c.93,.66,1.71,1.12,2.33,1.39,.4,.18,.8,.27,1.19,.27,.51,0,.98-.15,1.39-.46s.71-.72,.87-1.23c.17-.51,.25-1.5,.25-2.96v-12Z"/>
      <path class="cls-2" d="M1207.34,237.27h10.24v1.75h-8.46v5.6h8.38v1.75h-8.38v7.02h8.38v1.75h-10.17v-17.87Z"/>
      <path class="cls-2" d="M1237.31,240.59l-1.41,1.08c-.78-1.01-1.71-1.78-2.8-2.3-1.09-.52-2.29-.79-3.59-.79-1.42,0-2.74,.34-3.96,1.03-1.21,.69-2.16,1.6-2.82,2.76-.67,1.15-1,2.45-1,3.89,0,2.18,.75,4,2.24,5.45,1.49,1.46,3.38,2.19,5.65,2.19,2.5,0,4.6-.98,6.28-2.94l1.41,1.07c-.89,1.13-2,2.01-3.33,2.63-1.33,.62-2.82,.93-4.47,.93-3.13,0-5.59-1.04-7.4-3.12-1.52-1.76-2.27-3.88-2.27-6.37,0-2.62,.92-4.82,2.75-6.6,1.83-1.79,4.13-2.68,6.89-2.68,1.67,0,3.18,.33,4.52,.99,1.34,.66,2.45,1.59,3.3,2.78Z"/>
      <path class="cls-2" d="M1240.96,237.27h1.79v10.79c0,1.28,.02,2.08,.07,2.39,.09,.71,.3,1.29,.62,1.77,.32,.47,.82,.87,1.49,1.19,.67,.32,1.35,.48,2.03,.48,.59,0,1.16-.12,1.7-.38,.54-.25,1-.6,1.36-1.04,.36-.44,.63-.98,.8-1.62,.12-.45,.18-1.39,.18-2.79v-10.79h1.79v10.79c0,1.6-.16,2.89-.47,3.87-.31,.98-.94,1.84-1.87,2.57-.94,.73-2.07,1.09-3.4,1.09-1.44,0-2.68-.34-3.71-1.03s-1.72-1.6-2.07-2.73c-.22-.7-.33-1.95-.33-3.77v-10.79Z"/>
      <path class="cls-2" d="M1255.41,239.02v-1.75h9.79v1.75h-3.98v16.12h-1.82v-16.12h-3.99Z"/>
      <path class="cls-2" d="M1275.08,237.27l8.33,17.87h-1.93l-2.81-5.88h-7.7l-2.79,5.88h-1.99l8.44-17.87h.44Zm-.23,3.8l-3.06,6.47h6.11l-3.05-6.47Z"/>
      <path class="cls-2" d="M1286.19,255.14v-17.87h3.71c2.67,0,4.61,.21,5.82,.64,1.73,.61,3.09,1.66,4.06,3.16s1.46,3.28,1.46,5.36c0,1.79-.39,3.37-1.16,4.73-.77,1.36-1.78,2.36-3.01,3.01-1.24,.65-2.97,.97-5.19,.97h-5.69Zm1.71-1.69h2.06c2.47,0,4.19-.15,5.14-.46,1.34-.44,2.4-1.22,3.17-2.36,.77-1.14,1.15-2.53,1.15-4.17,0-1.73-.42-3.2-1.25-4.42-.83-1.22-2-2.06-3.49-2.51-1.12-.34-2.96-.51-5.53-.51h-1.26v14.43Z"/>
      <path class="cls-2" d="M1313.21,236.82c2.71,0,4.97,.9,6.8,2.71s2.73,4.03,2.73,6.67-.91,4.83-2.73,6.66c-1.82,1.82-4.04,2.73-6.66,2.73s-4.89-.91-6.71-2.72c-1.82-1.81-2.74-4.01-2.74-6.58,0-1.72,.42-3.31,1.25-4.78,.83-1.47,1.96-2.61,3.4-3.44,1.44-.83,2.99-1.25,4.66-1.25Zm.08,1.74c-1.32,0-2.58,.34-3.76,1.04-1.18,.69-2.11,1.62-2.77,2.78-.67,1.17-1,2.47-1,3.9,0,2.12,.74,3.92,2.21,5.38,1.47,1.46,3.24,2.19,5.32,2.19,1.39,0,2.67-.34,3.85-1.01s2.1-1.59,2.76-2.76c.66-1.17,.99-2.46,.99-3.89s-.33-2.7-.99-3.85c-.66-1.15-1.59-2.06-2.79-2.75-1.2-.69-2.48-1.04-3.82-1.04Z"/>
      <path class="cls-2" d="M1324.48,251.82l1.52-.91c1.07,1.97,2.3,2.95,3.71,2.95,.6,0,1.16-.14,1.69-.42,.52-.28,.93-.66,1.2-1.12,.28-.47,.41-.97,.41-1.49,0-.6-.2-1.19-.61-1.76-.56-.79-1.58-1.75-3.06-2.87-1.49-1.12-2.42-1.94-2.78-2.44-.63-.84-.95-1.75-.95-2.73,0-.78,.19-1.49,.56-2.13,.37-.64,.9-1.14,1.57-1.51s1.41-.55,2.2-.55c.84,0,1.63,.21,2.36,.63,.73,.42,1.51,1.19,2.33,2.3l-1.46,1.1c-.67-.89-1.25-1.48-1.72-1.76-.47-.28-.99-.42-1.55-.42-.72,0-1.31,.22-1.77,.66-.46,.44-.69,.98-.69,1.62,0,.39,.08,.77,.24,1.13s.46,.76,.89,1.19c.24,.23,1,.82,2.31,1.79,1.55,1.14,2.61,2.16,3.18,3.05,.58,.89,.86,1.79,.86,2.68,0,1.3-.49,2.42-1.48,3.38-.98,.96-2.18,1.44-3.59,1.44-1.09,0-2.07-.29-2.95-.87s-1.7-1.55-2.44-2.91Z"/>
      <path class="cls-2" d="M1340.31,241.59c.41,0,.77,.15,1.06,.44s.44,.65,.44,1.07-.15,.78-.44,1.07-.65,.44-1.06,.44-.77-.15-1.06-.44c-.29-.29-.44-.65-.44-1.07s.15-.77,.44-1.06c.29-.3,.64-.44,1.06-.44Zm0,10.89c.41,0,.77,.15,1.06,.44s.44,.65,.44,1.07-.15,.77-.44,1.06c-.29,.3-.65,.44-1.06,.44s-.77-.15-1.06-.44c-.29-.29-.44-.65-.44-1.06s.15-.78,.44-1.07c.29-.29,.64-.44,1.06-.44Z"/>
    </g>
    <g>
      <path class="cls-1" d="M1224.62,80.38c-3.85,0-7.48,.07-11.1-.03-2.41-.07-5.44,.37-5.54-3.3-.11-3.8,2.93-3.31,5.35-3.35,3.62-.06,7.24-.02,11.17-.02-.19-11.33,8.48-5.04,13.1-7.21,3.75-10.69,15.27-17.67,27.48-16.52,9.75,.93,20.12,8.89,21.24,16.31,4.25,2.93,13.58-4.29,13.43,7.43,4.36,0,8.5-.27,12.56,.15,1.44,.15,2.71,1.99,4.05,3.06-1.29,1.15-2.49,3.14-3.89,3.29-4.06,.45-8.21,.16-12.2,.16q-1.55,6.04-14.29,7.06c0,2.48-.11,5.06,.03,7.62,.23,4.22-1.51,6.15-5.86,5.74-2.29-.22-4.61-.04-7.73-.04v23.14c7.2,1.54,7.92,2.4,6.76,12.95-1.01,9.09-8.78,2.45-13.17,5.63v9.2c1.53,0,3.26,0,4.99,0,11.92,0,23.84-.04,35.76,0,2.31,0,4.73-.06,6.88,.61,1.16,.36,2.31,2.15,2.54,3.46,.12,.63-1.78,2.19-2.93,2.38-2.59,.43-5.27,.33-7.92,.33-30.46,.01-60.93,0-91.39,0-.83,0-1.87,.29-2.44-.09-1.31-.88-2.39-2.1-3.56-3.18,1.15-1.16,2.12-2.7,3.51-3.35,1.23-.58,2.92-.17,4.41-.17,14.05,0,28.1,0,42.5,0v-10.09c-2.83,0-5.6-.14-8.34,.03-3.48,.22-4.82-1.53-4.84-4.72-.01-1.99,.24-3.99,.02-5.95-.51-4.62,1.16-7.05,6.4-6.39v-23.81c-2.76,0-5.38-.16-7.97,.04-3.96,.31-5.4-1.49-5.16-5.27,.16-2.59,.03-5.21,.03-7.35-4.69-3.5-14.26,3.95-13.87-7.78Zm54.58,13.32c0-9.31,.06-18.02-.07-26.74-.02-1.16-.66-2.63-1.51-3.4-5.36-4.82-11.52-8.07-18.9-6.38-5.41,1.24-12.21,2.99-13.06,9.01-1.27,8.97-.33,18.26-.33,27.51h33.87Zm-20.09,7.18v23.37h6.07v-23.37h-6.07Zm-7.36,32.2c.13,.56,.26,1.11,.39,1.67,5.84,0,11.68,.08,17.51-.09,.91-.03,1.79-1.2,2.68-1.84-.9-.46-1.79-1.29-2.7-1.32-4.94-.13-9.88-.15-14.82,.01-1.04,.04-2.05,1.02-3.07,1.57Zm-19.88-53.09h6.28v-5.92h-6.28v5.92Zm54.49-6.07v6.48c2.29-.13,4.14-.24,5.86-.34v-6.14h-5.86Z"/>
      <path class="cls-1" d="M1282.71,148.03v-6.05h6.39v6.05h-6.39Z"/>
      <path class="cls-1" d="M1241.31,148.19h-6.19v-6.28h6.19v6.28Z"/>
      <path class="cls-1" d="M1296.21,131.7h6.56v6.19h-6.26c-.09-1.86-.18-3.74-.3-6.19Z"/>
      <path class="cls-1" d="M1221.69,137.94v-6.2h6.12v6.2h-6.12Z"/>
      <path class="cls-1" d="M1214.4,121.63v5.9h-6.23v-5.9h6.23Z"/>
      <path class="cls-1" d="M1316.17,121.56v6.06h-6.11v-6.06h6.11Z"/>
      <path class="cls-1" d="M1261.82,90.6c-1.14,0-2.62,.45-3.35-.1-1.23-.93-2.98-2.68-2.77-3.76,.81-4.22,4.58-2.99,7.2-2.73,2.01,.2,3.89,1.8,5.82,2.78-1,1.28-1.77,2.9-3.06,3.72-.93,.59-2.54,.12-3.84,.12,0,0,0-.02,0-.03Z"/>
      <path class="cls-1" d="M1261.69,70.14c-.98,0-2.16,.34-2.9-.08-1.26-.71-3.27-2.13-3.11-2.86,.3-1.39,1.68-3.16,3-3.59,1.93-.63,4.34-.69,6.28-.1,1.48,.45,2.53,2.29,3.76,3.51-1.36,1.05-2.63,2.27-4.12,3.08-.76,.41-1.93,.07-2.91,.07v-.04Z"/>
      <path class="cls-1" d="M1261.97,80.29c-1.16,0-2.54,.4-3.41-.1-1.24-.71-2.9-2.09-2.9-3.17,0-1.1,1.64-2.77,2.88-3.14,1.82-.55,4.03-.55,5.88-.05,1.57,.43,2.87,1.9,4.28,2.91-1.42,1.21-2.75,2.53-4.29,3.56-.57,.38-1.61,.06-2.44,.06v-.06Z"/>
    </g>
  </g>
</svg>